<svg width="10" height="14" viewBox="0 0 10 14" fill="none" xmlns="http://www.w3.org/2000/svg">
<path d="M1.79341 13.5H8.20659C9.0756 13.5 9.5 13.0736 9.5 12.1407V7.24987C9.5 6.4103 9.1497 5.97719 8.42889 5.9039V4.22476C8.42889 1.71271 6.76497 0.5 5 0.5C3.23503 0.5 1.57111 1.71271 1.57111 4.22476V5.93721C0.910928 6.03716 0.5 6.46361 0.5 7.24987V12.1407C0.5 13.0736 0.924401 13.5 1.79341 13.5ZM2.65569 4.08483C2.65569 2.41235 3.74027 1.52614 5 1.52614C6.25973 1.52614 7.34431 2.41235 7.34431 4.08483V5.89723L2.65569 5.9039V4.08483Z" fill="white" fill-opacity="0.5"/>
</svg>
