<svg width="390" height="40" viewBox="0 0 390 40" fill="none" xmlns="http://www.w3.org/2000/svg">
<path d="M23.1836 19.5967C23.1836 19.853 23.2759 20.0786 23.4707 20.2734L31.6021 28.2202C31.7764 28.4048 32.002 28.4971 32.2686 28.4971C32.8018 28.4971 33.2119 28.0972 33.2119 27.564C33.2119 27.2974 33.0991 27.0718 32.9351 26.8975L25.4702 19.5967L32.9351 12.2959C33.0991 12.1216 33.2119 11.8857 33.2119 11.6294C33.2119 11.0962 32.8018 10.6963 32.2686 10.6963C32.002 10.6963 31.7764 10.7886 31.6021 10.9629L23.4707 18.9199C23.2759 19.1045 23.1836 19.3403 23.1836 19.5967Z" fill="#0A84FF"/>
<path d="M118.577 19.5967C118.577 19.3403 118.474 19.1045 118.279 18.9199L110.158 10.9629C109.974 10.7886 109.748 10.6963 109.481 10.6963C108.958 10.6963 108.548 11.0962 108.548 11.6294C108.548 11.8857 108.651 12.1216 108.815 12.2959L116.28 19.5967L108.815 26.8975C108.651 27.0718 108.548 27.2974 108.548 27.564C108.548 28.0972 108.958 28.4971 109.481 28.4971C109.748 28.4971 109.974 28.4048 110.158 28.2202L118.279 20.2734C118.474 20.0786 118.577 19.853 118.577 19.5967Z" fill="#0A84FF"/>
<path d="M194.99 22.3857C195.431 22.3857 195.81 22.0166 195.81 21.5859V11.0552L195.749 9.51709L196.436 10.2451L197.994 11.9062C198.138 12.0703 198.343 12.1523 198.548 12.1523C198.968 12.1523 199.296 11.8447 199.296 11.4243C199.296 11.209 199.204 11.0449 199.05 10.8911L195.584 7.54834C195.379 7.34326 195.205 7.27148 194.99 7.27148C194.785 7.27148 194.61 7.34326 194.395 7.54834L190.929 10.8911C190.775 11.0449 190.693 11.209 190.693 11.4243C190.693 11.8447 191.001 12.1523 191.432 12.1523C191.626 12.1523 191.852 12.0703 191.996 11.9062L193.544 10.2451L194.241 9.51709L194.18 11.0552V21.5859C194.18 22.0166 194.549 22.3857 194.99 22.3857ZM189.114 30.4146H200.875C203.019 30.4146 204.095 29.3481 204.095 27.2358V17.0024C204.095 14.8901 203.019 13.8237 200.875 13.8237H198.015V15.4746H200.845C201.86 15.4746 202.444 16.0283 202.444 17.0947V27.1436C202.444 28.21 201.86 28.7637 200.845 28.7637H189.135C188.109 28.7637 187.545 28.21 187.545 27.1436V17.0947C187.545 16.0283 188.109 15.4746 189.135 15.4746H191.975V13.8237H189.114C186.971 13.8237 185.895 14.8901 185.895 17.0024V27.2358C185.895 29.3481 186.971 30.4146 189.114 30.4146Z" fill="#0A84FF"/>
<path d="M266.358 27.4102C266.358 28.251 266.912 28.5791 267.517 28.5791C267.865 28.5791 268.163 28.374 268.552 28.1382C269.68 27.3691 271.075 26.8975 272.5 26.9077C273.977 26.918 275.443 27.4614 276.591 28.5688C277.042 28.979 277.371 29.1123 277.75 29.1123C278.119 29.1123 278.458 28.979 278.898 28.5688C280.047 27.4717 281.513 26.918 283 26.9077C284.425 26.8975 285.81 27.3691 286.938 28.1382C287.327 28.374 287.625 28.5791 287.983 28.5791C288.578 28.5791 289.132 28.251 289.132 27.4102V13.4956C289.132 13.3213 289.122 13.1777 289.009 13.0034C288.096 11.4141 285.779 10.0708 282.959 10.0708C280.724 10.0708 278.786 10.9629 277.75 12.2241C276.714 10.9629 274.766 10.0708 272.541 10.0708C269.711 10.0708 267.394 11.4141 266.481 13.0034C266.378 13.1777 266.358 13.3213 266.358 13.4956V27.4102ZM268.009 26.5386V13.7314C268.839 12.5317 270.644 11.7217 272.541 11.7217C274.489 11.7217 276.191 12.542 276.919 13.793V26.7129C275.874 25.8823 274.243 25.2568 272.541 25.2568C270.757 25.2568 269.096 25.7593 268.009 26.5386ZM278.57 26.7129V13.793C279.298 12.542 281.011 11.7217 282.959 11.7217C284.846 11.7217 286.65 12.5317 287.481 13.7314V26.5386C286.394 25.7593 284.733 25.2568 282.959 25.2568C281.247 25.2568 279.616 25.8823 278.57 26.7129Z" fill="#0A84FF"/>
<path d="M352.871 25.6055H354.625V27.1743C354.625 29.2866 355.691 30.353 357.844 30.353H368.139C370.272 30.353 371.349 29.2866 371.349 27.1743V16.7974C371.349 14.6851 370.272 13.6187 368.139 13.6187H366.375V12.0498C366.375 9.9375 365.299 8.87109 363.166 8.87109H352.871C350.718 8.87109 349.651 9.9375 349.651 12.0498V22.4268C349.651 24.5391 350.718 25.6055 352.871 25.6055ZM352.892 23.9546C351.866 23.9546 351.302 23.4009 351.302 22.3345V12.1421C351.302 11.0757 351.866 10.522 352.892 10.522H363.135C364.15 10.522 364.725 11.0757 364.725 12.1421V13.6187H357.844C355.691 13.6187 354.625 14.6748 354.625 16.7974V23.9546H352.892ZM357.865 28.7021C356.85 28.7021 356.275 28.1484 356.275 27.082V16.8896C356.275 15.8232 356.85 15.2695 357.865 15.2695H368.108C369.124 15.2695 369.698 15.8232 369.698 16.8896V27.082C369.698 28.1484 369.124 28.7021 368.108 28.7021H357.865Z" fill="#0A84FF"/>
</svg>
