<svg width="64" height="24" viewBox="0 0 64 24" fill="none" xmlns="http://www.w3.org/2000/svg">
<path d="M22.0659 17.4089C22.4468 17.4089 22.6445 17.2625 22.7837 16.8523L23.7285 14.2668H28.0498L28.9946 16.8523C29.1338 17.2625 29.3242 17.4089 29.7051 17.4089C30.0933 17.4089 30.3423 17.1746 30.3423 16.8083C30.3423 16.6838 30.3203 16.5667 30.2617 16.4128L26.8267 7.26489C26.6582 6.81812 26.3579 6.59106 25.8892 6.59106C25.4351 6.59106 25.1274 6.81079 24.9663 7.25757L21.5312 16.4202C21.4727 16.574 21.4507 16.6912 21.4507 16.8157C21.4507 17.1819 21.6851 17.4089 22.0659 17.4089ZM24.0874 13.1536L25.8672 8.22437H25.9038L27.6836 13.1536H24.0874ZM14.2656 17.387C14.5659 17.387 14.7637 17.2332 14.8809 16.8743L15.4888 15.0798H18.3525L18.9604 16.8743C19.0776 17.2478 19.2754 17.387 19.583 17.387C19.9492 17.387 20.1982 17.1599 20.1982 16.8303C20.1982 16.6838 20.1616 16.5447 20.103 16.3909L17.8252 10.3411C17.6567 9.89429 17.3491 9.65991 16.917 9.65991C16.4922 9.65991 16.1846 9.87964 16.0161 10.3411L13.7383 16.3909C13.6797 16.53 13.6577 16.6765 13.6577 16.8303C13.6577 17.1672 13.8921 17.387 14.2656 17.387ZM15.811 14.1277L16.8364 11.0735H17.0049L18.0303 14.1277H15.811Z" fill="white" fill-opacity="0.5"/>
<path d="M43.855 16.5425C43.855 17.896 44.5522 18.6069 45.8989 18.6069H54.355C55.7153 18.6069 56.4263 17.9097 56.4263 16.5698V13.6851C56.4263 13.5483 56.5356 13.4868 56.6724 13.5962C57.0483 13.8833 57.4927 14.1157 58.0806 14.1157C59.2427 14.1157 60.145 13.1997 60.145 12.0239C60.145 10.855 59.2427 9.93896 58.0806 9.93896C57.4927 9.93896 57.0483 10.1714 56.6724 10.4585C56.5356 10.5679 56.4263 10.5063 56.4263 10.3696V7.43018C56.4263 6.09033 55.7153 5.39307 54.355 5.39307H45.8989C44.5522 5.39307 43.855 6.104 43.855 7.45752V10.3901C43.855 10.8345 44.2036 11.1284 44.6138 11.1284C44.8394 11.1284 45.0786 11.0327 45.2905 10.8276C45.6118 10.5269 46.0083 10.144 46.8013 10.144C47.8335 10.144 48.647 10.9644 48.647 12.0103C48.647 13.0562 47.8335 13.8765 46.8013 13.8765C46.0083 13.8765 45.6118 13.4868 45.2905 13.186C45.0786 12.9878 44.8394 12.8921 44.6138 12.8921C44.2036 12.8921 43.855 13.186 43.855 13.6304V16.5425Z" fill="white" fill-opacity="0.5"/>
</svg>
