<svg width="296" height="195" viewBox="0 0 296 195" fill="none" xmlns="http://www.w3.org/2000/svg">
<g clip-path="url(#clip0_0_414)">
<rect x="29.5767" y="0.437614" width="271.394" height="141.519" rx="10" transform="rotate(11.7748 29.5767 0.437614)" fill="#0394C3"/>
<path d="M206.683 110.019C206.101 108.991 206.023 107.862 206.014 106.708C206.007 105.793 205.77 105.091 204.684 105.921C204.425 106.119 204.161 106.397 203.811 106.099C203.683 105.993 203.588 105.853 203.535 105.696C203.483 105.538 203.476 105.368 203.514 105.206C203.732 103.774 203.502 102.479 202.258 101.562C201.906 101.301 201.921 100.906 201.807 100.549C201.632 99.9942 201.647 98.9878 200.883 99.209C199.74 99.5383 198.373 98.7091 197.38 100.167C196.825 100.991 195.639 101.387 194.733 101.956C193.722 102.624 192.784 103.405 191.656 103.893C191.12 104.124 191.41 104.629 191.318 105.017C190.936 106.652 190.707 108.366 189.252 109.517C188.925 109.776 188.676 110.204 188.169 109.964C187.661 109.724 187.652 109.294 187.556 108.806C187.048 106.251 186.456 103.713 185.912 101.168C185.681 100.099 185.536 99.0268 185.978 97.9632C186.207 97.4255 186.124 96.8756 185.853 96.1549C185.156 97.2415 184.438 97.7591 183.503 96.6806C182.841 95.9134 183.69 95.7859 184.229 95.4155C182.943 95.0069 182.325 94.1406 181.792 93.1693C181.409 92.4573 180.772 92.348 179.93 92.1519C177.767 91.6426 175.02 92.2667 173.705 89.6107C173.501 89.1965 173.238 89.0656 172.697 89.108C171.049 89.2677 169.458 88.0348 169.068 86.3236C169.01 85.9975 168.869 85.6925 168.658 85.4386C168.447 85.1848 168.174 84.9908 167.865 84.8759C167.441 84.7085 167.231 85.1329 166.984 85.4384C166.871 85.5595 166.801 85.7156 166.787 85.8812C166.773 86.0468 166.816 86.2122 166.907 86.3501C167.363 87.1799 167.629 88.1021 167.687 89.0497C167.728 89.6436 167.898 90.3345 168.703 89.6215C168.973 89.3852 168.957 89.4345 169.113 89.7069C170.146 91.6077 170.687 91.7029 172.465 90.3472C172.63 90.2236 172.785 90.0831 173.227 89.7187C172.316 91.8026 174.16 92.2076 174.85 93.2496C175.354 94.0219 175.564 94.4199 174.643 94.8805C173.852 95.2745 173.452 96.0952 172.805 96.6481C171.925 97.3982 171.073 98.0985 169.798 97.9439C169.418 97.911 169.038 98.0204 168.732 98.2513C166.78 99.8929 164.339 99.7176 162.075 100.223C161.18 100.42 161.009 99.9834 160.873 99.2994C160.744 98.8921 160.698 98.4625 160.738 98.0365C161.076 96.2341 160.174 94.7935 159.398 93.315C159.156 92.8607 158.852 92.37 158.826 91.8817C158.743 90.0737 158.021 88.495 157.155 86.989C156.559 85.9459 156.288 84.8359 156.265 83.3299C155.762 83.9741 155.359 84.7651 154.927 83.686C154.641 83.3693 154.375 83.0343 154.131 82.6831C154.053 82.537 154.008 82.3754 153.998 82.2097C153.989 82.044 154.015 81.8781 154.075 81.7234C154.197 81.5575 154.365 81.4315 154.558 81.3616C155.173 81.1972 155.933 81.3 156.267 80.5474C156.749 79.4626 157.37 78.4041 157.416 77.1963C157.436 76.6387 156.862 76.7881 156.522 76.8842C155.735 77.0946 155.037 77.0427 154.415 76.4448C154.075 76.1224 153.628 76.2048 153.201 76.1918C152.722 76.1914 152.257 76.0373 151.872 75.7518C151.487 75.4664 151.204 75.0645 151.062 74.6048C150.824 73.9376 150.804 73.2078 150.528 72.5387C150.374 72.1642 150.619 71.9108 151.004 71.8185C152.295 72.0203 153.46 71.3648 154.709 71.2008C156.457 70.98 157.854 71.4437 159.186 72.3828C160.397 73.2205 161.584 73.4239 162.761 72.3349C163.098 72.2323 163.462 72.2652 163.776 72.4265C164.465 72.9125 165.074 73.5136 165.865 73.8453C166.581 74.5095 167.379 75.0827 168.075 75.7866C168.354 76.9686 168.437 78.2324 169.752 78.8899C170.244 79.1359 170.673 79.4067 171.173 79.0427C171.673 78.6787 171.744 78.1843 171.573 77.6395C171.325 76.8622 170.713 76.079 171.803 75.4078C172.003 75.2828 171.748 74.9604 171.546 74.8422C171.106 74.5644 170.705 74.2289 170.354 73.8445C168.804 72.2749 168.993 71.4921 171.091 70.8349C171.052 70.3264 170.556 70.0708 170.421 69.6184C170.107 68.9675 170.01 68.2479 169.767 67.574C169.717 67.3849 169.683 67.1919 169.666 66.997C169.632 66.6036 169.504 66.2259 169.464 65.8341C169.433 65.496 169.535 65.1587 169.75 64.8958C170.46 64.5523 171.052 65.3252 171.741 65.1001C172.281 65.2127 172.853 65.212 173.343 65.5248C173.506 65.6057 173.661 65.7027 173.805 65.8144C174.106 66.1023 174.41 66.3824 174.866 66.3865C176.088 65.974 176.316 65.2257 175.649 63.7991C175.187 63.6326 174.986 64.1906 174.57 64.18C174.417 64.123 174.282 64.025 174.18 63.8965C174.077 63.768 174.012 63.6138 173.99 63.4504C173.923 63.05 173.85 62.6457 174.08 62.2664C174.787 61.887 175.141 61.358 174.795 60.5368C174.697 59.8615 174.736 59.1728 174.909 58.5121C175.005 58.2085 175.024 57.8857 174.964 57.5733C174.905 57.2609 174.768 56.9687 174.568 56.7232C174.334 56.3962 174.232 55.9926 174.28 55.5923C174.484 55.105 174.323 54.5243 174.659 54.0676C175.699 53.3568 177.103 53.3802 178.005 52.386C178.36 52.6737 178.792 52.863 179.109 52.4551C179.476 51.9903 178.837 51.8658 178.663 51.5838C178.575 51.4366 178.355 51.3734 178.229 51.2416C177.791 50.7905 177.147 50.3284 177.679 49.6288C178.211 48.9291 179.655 49.0399 180.068 49.7639C180.672 50.8261 181.121 51.9732 181.662 53.0693C181.952 53.6566 181.331 53.7552 181.177 54.1007C181.094 54.2883 180.722 54.3453 180.923 54.6534C181.079 54.8937 181.293 54.8681 181.545 54.8036C182.1 54.6646 182.622 54.5423 182.876 53.9104C183.129 53.2786 182.815 52.8092 182.466 52.362C182.236 52.074 181.903 51.8611 181.69 51.5592C181.476 51.2573 181.352 50.9475 181.592 50.6318C181.832 50.316 182.071 50.6204 182.32 50.7074C183.195 51.0127 183.964 50.614 184.712 50.2432C185.275 49.9656 185.842 49.7122 186.468 49.831C187.094 49.9497 187.942 50.6766 188.019 49.2353C188.032 49.1708 188.637 49.0569 188.936 49.0988C190.218 49.2781 191.546 48.9259 192.801 49.6117C193.465 49.9784 194.109 49.3284 194.708 48.9763C195.238 48.7473 195.677 49.0233 196.132 49.2263C196.992 49.8797 197.853 50.4482 199.036 50.4168C199.621 50.3983 200.207 50.737 200.793 50.9207C201.314 51.0848 201.848 51.4333 201.818 51.9391C201.801 52.4125 201.112 52.2338 200.772 52.441C200.433 52.6482 199.74 52.4863 199.884 53.0927C200.004 53.6036 200.559 53.2568 200.879 53.2123C202.009 53.0587 202.976 53.7549 203.941 53.8507C205.751 54.0319 207.237 55.2781 209.043 55.1571C209.842 55.0856 210.645 55.1966 211.393 55.4819C212.142 55.7671 212.816 56.2192 213.366 56.8043C214.231 57.6723 214.981 58.8119 216.586 58.0785C216.971 57.9041 217.74 58.3395 218.206 58.6679C218.39 58.8224 218.625 58.9013 218.865 58.8888C219.104 58.8764 219.331 58.7735 219.499 58.6007C220.876 57.053 222.176 58.3013 223.383 58.7374C225.761 59.5931 227.875 61.1047 230.427 61.5723C233.163 62.0754 235.581 63.6884 238.393 63.9381C238.901 63.9825 239.204 64.3822 239.642 64.5408C240.004 64.6718 240.597 65.7963 240.498 64.2685C240.478 63.9426 240.973 64.1189 241.212 64.1862C243.242 64.7761 245.258 65.4597 247.053 66.5743C248.688 67.5823 250.783 67.7058 252.11 69.2818C252.181 69.3372 252.262 69.3769 252.35 69.3981C252.437 69.4193 252.528 69.4216 252.616 69.4049C254.125 69.1341 254.698 70.149 255.269 71.3099C254.539 71.7049 254.073 71.1805 253.577 70.9278C252.819 70.5475 252.121 70.039 251.343 69.7131C251.076 69.6018 250.294 68.6164 250.26 70.0726C250.253 70.5101 249.49 69.7102 248.903 70.2168L252.251 72.536C252.049 72.9621 251.785 72.8749 251.502 72.7837C250.666 72.5158 249.912 72.6484 249.308 73.3301C249.039 73.6338 248.501 73.9695 248.36 73.7967C247.53 72.775 246.535 73.507 245.633 73.4565C245.236 73.4353 244.672 73.3557 244.485 73.8201C244.265 74.3595 244.629 74.9562 245.009 75.1817C245.486 75.4392 245.883 75.824 246.156 76.2939C246.43 76.7638 246.569 77.3008 246.56 77.8461C246.579 78.9532 245.883 79.9905 246.234 81.1639C246.277 81.3074 245.432 81.4562 245.301 81.1099C244.735 79.6458 243.555 78.6566 242.709 77.4209C241.534 75.7128 242.094 74.3253 243.098 72.9778C243.63 72.2664 243.378 71.7603 243.084 71.1781C242.819 70.6517 242.23 70.6315 242.112 71.0868C241.775 72.3977 241.369 71.6811 240.815 71.2876C239.297 70.2102 238.942 70.3646 238.318 72.1162C238.003 72.9723 237.295 72.7603 236.857 72.3967C235.391 71.19 233.492 71.9383 231.902 71.1941C231.205 70.8704 230.38 71.5265 229.933 72.2762C229.722 72.5934 229.553 72.9368 229.429 73.2978C229.288 73.7833 228.459 74.0906 228.769 74.5414C229.248 75.2265 230.104 75.9697 230.873 75.8199C232.575 75.487 232.984 76.8451 233.64 77.7223C234.168 78.4381 234.323 79.4097 234.828 80.232C235.536 81.3803 234.043 85.3913 232.835 86.0875C232.701 86.1763 232.547 86.2317 232.387 86.2493C232.228 86.2669 232.066 86.2461 231.916 86.1887C230.775 85.7839 230.073 86.3195 230.059 87.6012C230.073 87.7637 230.03 87.9263 229.937 88.0601C229.843 88.1938 229.706 88.2901 229.549 88.3319C227.908 88.6803 228.96 89.2507 229.404 89.7794C230.089 90.5923 230.978 91.2312 231.25 92.3823C231.477 93.3544 230.763 93.3254 230.244 93.5275C229.726 93.7296 229.3 93.6964 229.159 92.9619C228.925 91.7162 228.748 90.4064 227.267 89.9134C227.069 89.8486 227.127 89.5563 227.131 89.2997C227.143 88.2809 226.335 87.6705 225.427 88.0666C224.594 88.4373 224.377 88.1168 224.366 87.4152C224.346 86.185 223.79 86.2886 223.036 86.8278C222.875 86.9297 222.738 87.0647 222.634 87.2239C222.36 87.6877 221.06 87.2734 221.574 88.2817C221.943 89.0054 222.452 89.9075 223.62 89.6126C224.252 89.4517 224.674 89.9111 225.227 90.1816C225.007 90.6245 224.531 90.6218 224.217 90.8489C223.524 91.3834 222.632 91.7212 223.726 92.8974C224.473 93.7028 224.967 94.944 225.313 95.9467C225.6 96.7821 226.227 98.1243 225.242 99.2944C224.41 100.291 224.122 101.645 222.943 102.476C221.765 103.307 220.441 103.33 219.119 103.288C218.254 103.257 217.596 103.626 216.861 103.935C216.125 104.244 216.124 102.884 215.155 102.951C213.413 103.07 212.472 104.294 213.197 105.864C213.762 107.096 214.838 107.994 215.155 109.429C215.657 111.72 215.426 112.448 213.275 113.292C212.597 113.561 212.314 114.555 211.3 114.291C211.43 113.601 211.925 112.979 210.597 112.535C209.875 112.294 209.376 110.674 208.573 109.813C208.322 109.544 208.165 109.099 207.728 109.172C207.246 109.253 207.346 109.762 207.223 110.103C207.186 110.141 207.141 110.171 207.091 110.19C207.041 110.208 206.987 110.215 206.934 110.209C206.88 110.199 206.83 110.176 206.786 110.144C206.743 110.111 206.707 110.068 206.683 110.019Z" fill="#EBEBEB"/>
<path d="M154.403 81.7127C154.403 81.7306 154.399 81.7483 154.391 81.7644C154.383 81.7804 154.372 81.7946 154.358 81.8057C154.344 81.8168 154.327 81.8246 154.31 81.8285C154.293 81.8325 154.275 81.8325 154.257 81.8286C153.83 82.2632 154.151 82.6844 154.284 83.0925C154.427 83.3646 154.496 83.6696 154.486 83.9774C155.219 86.0352 155.511 88.2176 156.363 90.2358C156.582 90.6631 156.646 91.1547 156.544 91.6255C156.43 91.9397 156.425 92.283 156.529 92.5999C157.541 94.4349 157.543 96.7265 159.096 98.3203C159.852 99.0516 160.297 100.049 160.34 101.105C160.336 101.31 160.374 101.513 160.452 101.702C160.53 101.89 160.647 102.06 160.794 102.201C160.941 102.342 161.116 102.45 161.307 102.519C161.498 102.588 161.702 102.616 161.905 102.602C163.45 102.561 165.034 102.918 166.55 102.212C167.151 104.444 165.243 105.375 164.362 106.754C163.067 108.79 161.073 109.99 158.923 111.081C157.3 111.896 155.905 113.211 154.568 114.481C153.012 115.956 152.895 117.936 153.464 119.863C153.92 121.407 153.308 122.839 153.227 124.303C153.174 125.237 152.094 126.098 150.905 126.356C150.051 126.551 149.248 126.928 148.55 127.463C147.209 128.418 146.444 129.207 146.974 131.023C147.239 131.913 146.264 132.66 145.306 132.812C144.215 132.985 143.673 133.58 143.712 134.619C143.753 135.748 142.687 135.76 142.16 136.267C140.625 137.75 138.986 139.147 136.811 139.63C136.505 139.703 136.08 139.887 135.86 139.759C134.685 139.081 133.435 139.254 132.176 139.243C131.158 139.236 130.625 138.393 130.92 137.579C131.459 136.079 130.708 134.887 130.226 133.704C129.674 132.352 129.495 130.876 129.705 129.428C129.909 127.879 129.919 126.295 129.277 124.821C128.233 122.385 128.882 120.276 130.537 118.414C131.3 117.537 131.89 116.689 131.404 115.519C131.063 114.705 131.765 114.085 131.597 113.204C131.247 111.273 130.861 109.431 129.739 107.775C129.168 106.93 129.807 106.153 130.213 105.404C130.714 104.475 131.179 103.557 130.685 102.444C130.56 102.175 130.462 101.812 130.217 101.761C128.617 101.477 127.841 100.198 126.829 99.1441C125.896 98.1711 124.573 98.8172 123.619 99.0602C121.293 99.6669 119.169 98.3754 116.859 98.7368C115.571 98.9393 113.04 95.6787 112.947 94.1172C112.872 92.8636 112.159 91.9045 111.618 90.8904C111.282 90.2585 110.28 89.8974 111.273 89.0481C110.497 87.423 112.01 86.603 112.535 85.4337C112.915 84.5853 112.822 83.6793 112.619 82.8174C112.531 82.5203 112.521 82.2052 112.591 81.9027C112.66 81.6003 112.805 81.3207 113.013 81.0912C114.235 79.7745 115.484 78.4781 116.768 77.224C117.144 76.8658 117.597 76.5997 118.092 76.4466C119.388 76.0554 120.348 75.3805 120.816 74.0266C120.963 73.6182 121.21 73.2537 121.535 72.9677C121.86 72.6816 122.252 72.4834 122.673 72.3917C123.546 72.1567 124.298 71.5985 124.78 70.8292C125.279 70.2866 125.655 70.8126 125.986 71.0339C126.39 71.3269 126.86 71.5139 127.353 71.578C127.847 71.6421 128.35 71.5813 128.815 71.4011C130.51 70.8092 132.204 70.6122 133.944 71.3232C134.774 71.663 135.696 71.659 136.607 71.6354C137.885 71.6091 138.381 72.0579 138.109 73.2389C137.718 74.9337 138.356 75.8833 139.868 76.4382C140.358 76.637 140.76 77.0064 141.001 77.4793C141.454 78.2788 142.243 78.616 143.005 79.0177C143.497 79.2782 143.86 79.1959 144.227 78.731C145.192 77.5305 145.931 77.2866 147.072 78.1272C148.993 79.5432 151.046 80.4831 153.423 80.7417C153.912 80.7939 154.501 80.9635 154.403 81.7127Z" fill="#EBEBEB"/>
<path d="M29.241 29.9646C27.2559 30.0248 25.3586 30.9462 23.3144 30.523L27.2921 29.5583C27.4854 28.8261 26.7405 29.2502 26.5674 28.9654C26.2827 28.5754 25.4362 28.1209 26.7202 27.9262C26.9598 27.8913 27.3289 27.6258 27.3587 27.4272C27.6467 25.3071 29.2163 25.8743 30.4688 25.9422C31.5656 26.0041 32.5995 26.0616 33.5314 25.0473C32.4019 25.0166 31.3256 25.1903 30.554 24.251C32.1752 22.801 33.9995 24.7527 35.6471 23.9285C35.0638 22.5457 35.2522 22.2134 36.6821 22.5173C37.7818 22.7465 38.7213 22.281 39.7416 22.2362C42.5604 22.0807 45.379 22.5118 48.0215 23.5027C49.9393 24.239 51.8964 24.843 53.6798 25.9317C54.4385 26.3323 55.3043 26.481 56.1535 26.3566C58.0706 26.1408 60.0102 26.3523 61.8345 26.9761C63.2799 27.4705 64.85 27.7568 65.9456 28.7724C66.713 29.5161 67.7396 29.9275 68.8063 29.9189C69.4019 29.9465 69.1989 30.823 69.6284 31.2432C70.9148 30.0336 72.3735 30.0596 73.8045 30.9432C74.8226 31.5505 76.14 31.1813 77.114 32.2505C77.4453 32.6122 78.9821 31.8879 79.9527 31.6073C80.1105 31.5612 80.3647 31.2338 80.1943 31.0198C79.3035 29.886 80.5607 30.1539 80.8903 30.0499C81.6458 29.8124 83.1608 28.9137 82.022 31.032C81.9987 31.1658 82.0021 31.3028 82.0319 31.4351C82.0617 31.5674 82.1172 31.6923 82.1954 31.8027C83.4996 31.8317 83.1917 32.3469 82.6951 33.1125C82.5337 33.3715 82.9638 33.4962 83.28 33.3866C83.9441 33.1417 84.654 32.997 85.2164 32.529C85.4332 32.3402 85.7043 32.2261 85.9897 32.2035C86.2752 32.1808 86.5601 32.2508 86.8027 32.4031C87.3067 32.675 87.6097 32.9635 86.9125 33.5205C85.8258 34.3855 84.7187 34.819 83.3948 34.2855C82.3015 33.844 81.0555 35.0415 79.9144 33.7561C80.8254 35.295 79.8801 35.3145 78.9964 35.2473C76.6214 35.0595 74.5864 36.2653 72.3945 36.8296C71.7278 37.0038 70.8956 37.6233 71.0268 38.0809C71.2413 38.822 71.2364 39.8628 72.3501 40.2061C73.6586 40.6047 74.4393 41.9321 75.7566 42.3999C76.0975 42.5207 76.0088 42.8621 75.8357 43.1216C75.6625 43.381 75.4351 43.6497 75.2544 43.931C74.8723 44.5654 74.8062 45.3007 75.4159 45.7204C75.5488 45.8025 75.6974 45.8556 75.8521 45.8764C76.0067 45.8973 76.1641 45.8853 76.3141 45.8414C76.4641 45.7975 76.6035 45.7225 76.7232 45.6213C76.8429 45.5201 76.9404 45.3949 77.0093 45.2537C77.6385 43.6291 79.0194 43.3317 80.398 42.8084C81.1628 42.526 82.1442 42.1804 81.888 40.9565C81.8805 40.9091 81.8817 40.8608 81.8916 40.8138C81.9764 40.4072 84.6485 38.2076 85.162 38.1274C86.089 37.987 88.141 39.041 88.5744 39.8746C88.6906 40.0571 88.739 40.2751 88.7111 40.4903C88.6833 40.7056 88.5809 40.9043 88.4221 41.0514C88.0525 41.4309 88.3397 41.7395 88.5006 42.0686C88.7366 42.5392 89.1264 42.439 89.4786 42.3105C90.2736 42.0226 91.0589 41.6976 91.9914 41.3214L91.7835 46.7503C92.3367 46.7866 93.606 46.3693 93.7029 47.563C93.7998 48.7566 92.5128 48.8541 91.6554 49.0236C89.9154 49.3574 88.2102 49.6077 86.4084 48.9834C84.6067 48.3591 82.7895 49.063 81.0967 49.8953C82.4561 50.0353 83.8123 49.1738 85.1546 49.9394C85.1759 50.8685 83.3116 50.7257 84.0355 52.0471C84.5408 52.9396 85.4058 53.0409 86.3376 53.0859C85.0196 54.0432 83.402 53.5948 82.0429 54.1777C81.9628 54.2136 81.7419 54.0886 81.696 53.9883C81.6782 53.9446 81.67 53.8976 81.6719 53.8504C81.6737 53.8032 81.6857 53.7569 81.7069 53.7147C81.7281 53.6724 81.758 53.6353 81.7947 53.6057C81.8314 53.5761 81.874 53.5548 81.9195 53.5433C82.2359 53.419 82.5494 53.3088 82.8468 53.1923C83.1472 52.8101 82.9286 52.7996 82.6046 52.8491C81.027 52.7661 79.2874 52.8746 78.1055 53.7227C75.786 55.3871 72.892 55.3896 70.5648 56.868C70.2308 57.0764 69.8465 57.3036 69.8669 57.6794C69.9581 59.4162 68.7212 59.9982 67.4509 60.2806C66.3142 60.5353 65.3261 61.0668 64.3096 61.525C62.6074 62.2909 62.9132 64.0432 62.6622 65.4979C62.6038 65.7784 62.7486 66.1012 62.6537 66.3331C62.4623 66.8053 62.1931 67.428 61.6732 67.4133C61.1534 67.3986 61.0899 66.7416 61.077 66.2736C61.0607 65.6411 60.7903 65.0433 61.2168 64.3626C61.7013 63.5857 61.0278 62.8308 60.3861 62.7731C59.8879 62.7181 59.4168 62.5182 59.0303 62.1979C58.0477 61.5043 57.1642 61.2412 56.1946 62.2827C55.5966 62.9219 55.0518 62.1908 54.5952 61.9142C52.6616 60.724 49.5614 61.5204 48.4866 63.5409C48.058 64.3752 47.5881 65.1875 47.0787 65.9747C46.3508 67.0696 46.5753 68.2781 46.728 69.4132C46.8589 70.3183 47.3735 71.3474 48.4502 71.4226C49.621 71.5057 50.9716 71.7024 51.7462 70.3831C52.0258 69.9059 52.2934 69.4584 52.9074 69.4956C53.5213 69.5329 54.3672 69.1678 54.7275 69.8926C55.0346 70.5097 54.3462 70.969 54.0253 71.4493C53.5353 72.2003 53.0053 72.9241 52.4375 73.6174C51.7715 74.415 52.1587 74.5923 52.9397 74.7756C53.672 74.9282 54.4418 74.6497 55.1527 75.0993C55.7689 75.4882 56.2449 75.7133 55.6964 76.6027C55.2357 77.3494 55.0244 78.2652 54.7724 79.1257C54.2973 80.7502 55.4397 82.1267 57.0918 81.9356C57.4664 81.8751 57.85 81.9316 58.1911 82.0974L58.1566 82.2629C57.6207 82.4643 56.7789 82.0986 56.6838 83.1264C56.6662 83.3363 56.3557 83.3067 56.1197 83.1288C54.6256 82.0184 53.0166 81.1241 52.6508 78.9351C52.5066 78.0798 52.3692 76.746 50.7605 76.5336C49.7987 76.4092 48.8868 75.5578 48.4176 74.4358C48.0014 73.436 47.3377 72.648 46.0107 73.2025C45.8583 73.274 45.6899 73.3036 45.5226 73.2882C45.3553 73.2729 45.1952 73.2132 45.0586 73.1152C43.5357 71.9198 41.9416 70.815 40.5201 69.5091C39.774 68.8239 39.0654 67.889 39.9311 66.6766C40.3088 66.1466 40.0541 65.4732 39.8538 64.8871C39.2704 63.1707 38.7048 61.4521 38.071 59.7544C37.7907 59.0083 37.8315 58.2413 37.8591 57.5096C37.8875 56.8718 37.8807 56.2353 37.1436 56.2455C36.4065 56.2558 36.3423 56.8979 36.4691 57.5301C36.8282 59.526 37.0451 61.5456 37.118 63.5735C37.1308 63.8045 37.2576 64.0328 36.9827 64.3618C36.5351 63.4433 35.6943 62.7383 36.1946 61.5785C36.2288 61.4978 36.2677 61.3391 36.2345 61.3175C34.8463 60.3259 35.8109 58.8619 35.5439 57.662C35.1712 55.9661 35.8278 54.2096 34.5471 52.4795C33.8411 51.5042 34.1022 49.3873 34.911 47.9464C35.5654 46.7771 36.4451 45.7506 37.4983 44.9274C38.5208 44.1338 39.4897 43.3321 40.1782 42.2173C40.5244 41.6574 40.9067 41.1196 41.3503 42.169C41.4693 42.4484 41.546 42.4146 42.221 41.894C42.6859 41.0574 42.2227 40.2556 42.1512 39.4418C41.5022 38.5135 41.6119 37.0118 42.3953 36.0689C43.4281 34.8211 43.1869 33.372 42.178 32.2194C40.8998 30.7561 39.0803 30.3564 37.5602 29.384C37.4301 29.2861 37.2782 29.2215 37.1177 29.1957C36.9571 29.1699 36.7926 29.1836 36.6383 29.2357C35.596 29.6187 34.4534 29.616 33.4152 29.2281C32.3866 28.8528 31.2477 29.6337 30.1683 29.9618C29.8602 30.158 29.5403 29.825 29.241 29.9646Z" fill="#41B64A"/>
<path d="M64.5389 81.2581C64.3935 81.7048 64.2286 82.1474 64.111 82.5999C64.0195 82.9554 63.9189 83.4378 64.4329 83.4805C64.7428 83.5129 65.1281 83.128 65.0106 82.8138C64.5895 81.6842 65.6111 81.6748 66.113 81.4136C66.7393 81.0847 67.1112 81.6978 67.4355 82.1487C68.1392 83.1353 69.2324 83.4656 70.2938 83.6693C70.8799 83.7843 71.4401 84.0052 71.9475 84.3212C72.1722 84.3418 72.3866 84.4251 72.5665 84.5619C72.7464 84.6987 72.8846 84.8834 72.9656 85.0953C73.5867 85.9066 74.2833 86.6341 74.6412 87.6627C74.9991 88.6913 75.9058 89.2051 76.9221 89.3468C78.5224 89.5721 79.6541 90.5396 80.0062 92.1258C80.3403 93.6586 80.6583 95.1296 78.6018 95.7134C78.5297 95.7324 78.4632 95.7684 78.4077 95.8186C78.3522 95.8687 78.3094 95.9314 78.2829 96.0015C78.2563 96.0715 78.2468 96.147 78.2551 96.2214C78.2634 96.2958 78.2892 96.3672 78.3305 96.4294C78.8996 96.4866 79.228 95.9844 79.677 95.7678C80.2929 95.4748 80.9522 95.3225 81.2879 95.9836C81.6236 96.6447 80.7942 96.7352 80.4382 97.0355C80.3035 97.1213 80.1585 97.1895 80.0067 97.2382C81.2038 98.073 81.9647 96.2066 82.9226 96.8657C83.6238 97.3484 84.949 97.6803 84.0798 99.091C86.1832 99.1461 88.1184 99.2276 89.2291 101.3C89.5327 101.789 89.9714 102.178 90.4916 102.42C92.2206 103.366 92.4111 105.393 90.75 106.518C89.5528 107.328 88.9117 108.69 87.6263 109.379C87.2804 109.561 87.2012 110.025 87.1982 110.402C87.1856 112.901 85.9105 114.921 84.6613 116.913C84.1741 117.69 83.5541 118.406 82.2243 117.901C81.4839 117.621 80.3664 118.201 79.464 118.516C78.5616 118.832 77.6426 119.199 78.0405 120.537C78.124 120.847 77.9083 121.297 77.7019 121.59C76.4838 123.366 75.1264 125.04 73.6428 126.597C73.0365 127.22 72.2547 127.291 71.4625 126.701C71.0404 126.385 70.6022 125.937 69.9371 126.117C69.9371 126.702 70.5666 126.86 70.7509 127.369C71.4009 129.185 70.5444 130.367 68.6267 130.146C67.8671 130.055 66.959 129.505 67.2256 131.097C67.2984 131.543 66.7999 132.331 65.978 131.633C65.7633 131.451 65.5264 131.012 65.165 131.352C64.8796 131.621 65.0817 132.073 65.2399 132.275C66.1931 133.486 65.3681 134.35 64.6472 135.119C64.0774 135.72 64.0889 136.264 64.5454 136.722C65.4816 137.666 65.2545 138.435 64.4297 139.27C64.2327 139.443 64.0799 139.661 63.9844 139.906C63.8888 140.151 63.8532 140.416 63.8807 140.677C63.9623 141.247 64.0644 141.775 63.2652 141.986C62.9384 142.07 62.5948 142.058 62.2752 141.951C61.9555 141.844 61.6732 141.648 61.4615 141.384C60.5262 140.171 59.6425 138.878 59.6684 137.206C59.6851 136.332 59.0769 135.752 58.3802 135.15C59.5258 134.727 59.9039 134.209 59.5619 132.924C59.2725 131.845 58.5966 130.823 58.5461 129.853C58.4759 128.489 58.0306 127.085 58.6498 125.634C59.6193 123.366 59.204 120.857 59.5392 118.469C59.7577 116.905 59.9085 115.303 60.3936 113.812C61.5962 110.022 60.8183 108.458 58.0544 106.164C57.0635 105.343 56.8294 104.264 56.2862 103.247C55.0325 100.899 55.3648 98.0507 53.7247 95.8565C53.3203 95.3157 53.1162 94.4275 53.9328 93.7432C54.4221 93.3331 55.2552 92.8483 54.2894 92.0325C54.0298 91.8145 54.256 91.4403 54.4747 91.1435C55.0373 90.32 55.7312 89.5954 56.5282 88.9993C58.2534 87.8168 59.0418 86.2224 58.5792 84.1214C58.4911 83.708 58.4786 83.3777 58.8471 83.115C58.811 82.8003 58.933 82.7028 59.2264 82.8283C59.3176 82.9355 59.4329 83.0192 59.5628 83.0724C59.6928 83.1256 59.8335 83.1468 59.9734 83.1342C60.1133 83.1215 60.2482 83.0755 60.367 82.9998C60.4859 82.9242 60.5851 82.8211 60.6565 82.6992C60.9631 82.209 61.3929 81.8088 61.9021 81.5393C62.4114 81.2698 62.982 81.1405 63.5561 81.1645C63.8027 81.1661 64.0477 80.9246 64.2922 80.797C64.3618 80.8534 64.4195 80.9232 64.4618 81.0024C64.5042 81.0816 64.5304 81.1685 64.5389 81.2581Z" fill="#0F8140"/>
<path d="M167.908 75.9361C167.081 75.3863 166.228 74.8633 165.703 73.9695C165.073 73.5631 164.382 73.2524 163.84 72.7034L162.766 72.4793C161.665 71.7525 160.836 70.7252 159.909 69.8091C159.186 69.0965 160.003 68.4095 160.106 67.5822C159.414 67.7658 158.673 67.4856 158.224 68.2492C158.219 68.508 158.135 68.7592 157.984 68.9688C157.005 69.4818 156.518 69.032 156.176 68.1355C155.769 67.0791 155.248 66.9003 154.404 67.6052C153.433 68.4154 152.402 69.2538 152.669 70.7726C152.823 71.6358 152.24 71.6578 151.65 71.7308C150.756 71.8371 149.936 71.157 149.032 71.5363C148.532 71.6076 147.871 71.5341 148.27 72.4074C148.361 72.6275 148.411 72.8632 148.415 73.102C148.446 73.8459 148.219 74.5622 147.407 74.5393C146.595 74.5164 146.227 73.8574 146.338 73.0083C146.371 72.8484 146.719 72.6958 146.455 72.5558C145.121 71.8476 145.222 70.5429 145.077 69.3276C145.069 69.1336 144.986 68.9505 144.846 68.8172C143.533 67.8704 142.689 66.3746 140.963 65.3975C141.509 66.6607 142.279 67.8127 143.235 68.7974C144.242 69.8472 144.199 70.64 143.212 71.6955C143.126 71.8104 143.012 71.901 142.881 71.9588C142.749 72.0165 142.606 72.0394 142.464 72.0252C142.088 71.9615 142.107 71.6201 142.122 71.3512C142.168 70.4331 141.721 69.8044 141.001 69.3413C140.004 68.6837 139.244 67.7199 138.835 66.5925C138.507 65.7809 138.096 65.4378 137.226 65.8094C136.425 66.1517 135.594 66.2916 134.749 65.9018C134.484 65.7792 134.087 65.7198 133.963 65.9779C133.466 66.9716 132.435 67.0113 131.635 67.462C131.038 67.762 130.558 68.2543 130.271 68.8604C130.085 69.2505 129.805 69.5875 129.457 69.8406C129.108 70.0936 128.702 70.2545 128.276 70.3085C127.309 70.4845 126.304 70.2604 125.326 70.5246C125.064 70.5958 124.976 70.2762 124.962 70.0245C124.664 69.7282 124.408 69.2417 124.063 69.167C122.368 68.8135 123.133 67.6942 123.351 66.8295C123.588 65.887 124.196 65.1008 124.283 64.0448C124.359 63.1214 125.249 63.1695 125.978 63.421C126.775 63.6954 127.551 64.0415 128.357 64.2884C129.162 64.5353 129.855 64.6681 130.363 63.6239C130.883 62.5265 131.073 61.6123 130.182 60.6599C129.876 60.3298 129.268 60.3375 129.133 59.6188C130.46 59.8697 131.83 59.7648 133.106 59.3146C134.444 58.8144 135.733 58.1907 136.958 57.4516C137.598 57.0846 138.165 56.7902 138.915 56.9525C139.92 57.162 140.192 56.651 140.036 55.7552C139.853 54.766 140.279 54.2285 141.245 54.0553C141.634 54.5724 140.975 54.9151 141.056 55.3649C141.272 55.5277 141.437 55.75 141.53 56.0051C142.305 57.1763 143.62 56.9588 144.734 57.2201C145.173 57.3118 145.684 57.1052 146.131 57.2598C147.453 57.7225 148.442 57.5601 148.802 55.9876C148.84 55.8053 149.016 55.5318 149.142 55.5697C150.484 55.9753 150.474 54.516 151.195 54.0838C152.018 53.8692 152.712 54.5523 153.857 54.4106C152.667 53.905 151.642 54.1801 150.74 53.8544C148.993 52.6856 148.909 51.9746 150.344 50.553C150.591 50.3313 150.813 50.0833 151.007 49.8133C151.111 49.6505 151.207 49.4686 151.069 49.2908C151.041 49.2529 151.004 49.2214 150.963 49.1983C150.921 49.1751 150.876 49.1608 150.828 49.1561C150.781 49.1515 150.733 49.1567 150.688 49.1713C150.643 49.186 150.601 49.2098 150.566 49.2413C149.671 50.047 148.552 50.4427 147.522 51.0065C146.945 51.3222 147.048 51.8879 147.398 52.3559C147.989 53.126 147.744 53.6748 146.966 54.0656C146.346 54.3754 145.979 54.9222 145.537 55.4152C144.592 56.4766 143.786 56.5133 142.815 55.6351C142.806 55.5688 142.797 55.5024 142.784 55.4355C143.133 54.5161 142.583 53.7957 142.272 53.0169C141.998 52.3393 141.573 52.7336 141.236 52.883C140.151 53.3649 139.358 53.0327 138.94 51.9829C138.47 50.8081 139.027 49.7127 140.196 49.3184C140.989 49.0535 141.83 49.0738 142.647 48.7905C144.171 48.2537 145.125 46.966 146.48 46.2095C148.522 45.0639 150.6 44.865 152.781 45.2464C154.491 45.5443 155.903 46.38 157.383 47.3617C158.43 48.0539 159.965 48.4411 161.237 49.0692C161.671 49.2855 162.398 49.5218 162.095 50.1494C161.888 50.5743 161.204 50.4524 160.685 50.3938C159.808 50.293 159.151 49.7084 158.362 49.4122C157.925 49.2508 157.526 49.0066 156.841 49.2531C157.982 49.8713 157.819 51.239 158.805 51.9275C159.418 52.3478 159.913 52.5797 160.569 52.1606C160.544 51.8628 160.655 51.7484 160.949 51.8857C161.968 51.5685 162.793 50.6899 164.016 50.9127C164.384 50.9893 164.178 50.5133 164.192 50.2646C164.205 50.0653 163.797 49.6671 164.354 49.6692C164.627 49.6676 165.048 49.6031 165.096 50.096C165.219 51.3184 166.029 51.0397 166.72 50.7769C167.982 50.2968 169.095 50.2155 170.466 50.7852C171.396 51.1723 172.739 51.5048 173.894 50.8706C173.961 50.3548 174.208 50.3509 174.557 50.6284L177.97 52.3757C177.885 53.3676 177.067 53.4722 176.368 53.704C175.831 53.8846 175.279 54.0213 174.735 54.1772C174.098 54.5593 174.965 55.3049 174.369 55.6985C174.465 55.9615 174.55 56.2249 174.652 56.489C175.245 57.1131 175.008 57.8889 175.03 58.6164C174.991 59.3221 174.604 60.0346 175.063 60.733C175.681 61.7397 175.336 62.2064 174.221 62.2461C173.492 62.6355 174.214 63.0493 174.2 63.4502C174.219 63.5936 174.277 63.7287 174.368 63.8403C174.459 63.9519 174.58 64.0354 174.716 64.0816C175.009 63.7213 175.42 63.491 175.744 63.1662C176.626 63.9355 176.332 64.9833 176.236 65.9027C176.144 66.7614 175.377 66.7624 174.69 66.6893C174.42 66.323 173.904 66.2768 173.64 65.9262L173.097 65.7457C172.906 65.0299 172.314 65.4186 171.904 65.3097C171.104 65.6874 170.469 65.2214 169.798 64.9175C169.659 65.039 169.554 65.1957 169.496 65.3714C169.437 65.5471 169.426 65.7352 169.465 65.9162C169.541 66.3216 169.724 66.6986 169.995 67.0072C169.963 67.1642 169.93 67.3213 169.897 67.4783C169.896 68.195 170.535 68.9193 169.865 69.6282C166.703 70.8567 166.703 70.8595 168.283 73.8722C168.583 74.3542 168.715 74.9232 168.66 75.4902C168.593 75.9531 168.413 76.2698 167.908 75.9361Z" fill="#C02226"/>
<path d="M211.182 155.194C210.15 155.462 209.105 155.931 208.061 155.377C207.501 155.082 206.775 154.773 207.9 154.033C208.286 153.799 208.597 153.458 208.796 153.051C208.996 152.645 209.076 152.189 209.026 151.739C208.842 150.223 209.52 148.852 209.92 147.448C210.047 147.008 210.148 146.56 210.223 146.107C210.406 145.048 210.914 144.188 212.14 143.949C213.756 143.639 215.319 143.055 217.023 143.31C217.311 143.342 217.603 143.302 217.872 143.193C218.142 143.085 218.38 142.911 218.567 142.687C219.753 141.179 221.745 140.894 223.104 139.612C223.762 138.991 224.749 138.688 225.507 139.835C225.909 140.44 226.408 140.918 226.984 139.719C227.642 138.358 231.09 137.648 232.547 139.216C233.005 139.71 232.496 139.922 232.266 140.106C231.276 140.894 231.328 141.666 232.192 142.481C232.497 142.773 232.704 143.199 233.051 143.418C233.617 143.77 233.794 144.925 234.62 144.559C235.581 144.13 236.502 143.488 236.78 142.281C237.029 141.089 237.662 140.011 238.581 139.216C238.435 141.687 240.545 143.66 239.029 146.04C238.839 146.339 239.014 146.587 239.184 146.818C240.604 148.744 240.494 151.235 241.531 153.341C241.975 154.247 241.189 155.652 240.53 156.595C239.506 158.064 238.286 159.305 236.506 160.043C235.113 160.63 233.968 161.793 232.723 162.719C232.217 163.096 231.83 163.686 231.042 163.159C230.8 162.997 230.302 163.13 229.956 163.225C229.196 163.459 228.415 164.139 227.886 162.884C227.773 162.618 227.456 162.832 227.251 162.892C226.445 163.122 225.968 162.61 225.391 162.186C224.565 161.58 225.066 161.114 225.381 160.548C225.473 160.385 225.325 160.091 225.284 159.857C225.346 159.338 225.123 158.861 225.061 158.348C225.264 158.097 225.911 158.048 225.622 157.552C225.412 157.165 225.026 157.5 224.762 157.665C223.767 158.256 223.197 158.304 222.843 156.908C222.54 155.712 221.542 154.98 220.207 154.93C220.197 154.867 220.209 154.802 220.241 154.747C220.274 154.692 220.326 154.651 220.386 154.631C220.636 154.623 220.885 154.656 221.124 154.729C220.962 154.649 220.783 154.611 220.603 154.619C220.423 154.626 220.247 154.679 220.092 154.772C219.577 154.805 219.087 154.343 218.558 154.704L214.276 155.415C213.732 155.237 213.216 154.927 212.623 155.205L212.666 155.196C212.172 155.374 211.695 154.877 211.182 155.194Z" fill="#EBEBEB"/>
<path d="M123.115 39.642C121.661 40.249 120.092 40.2059 118.66 39.884C117.563 39.6117 116.404 39.7542 115.402 40.2845C114.668 40.6553 113.918 40.9059 113.093 40.7661C110.994 40.4133 109.351 41.215 107.932 42.7248C107.184 43.5286 106.374 44.6241 105.093 43.8039C103.072 42.5046 103.233 41.912 103.469 39.8719C103.679 38.0428 104.571 37.5557 105.977 37.0529C107.044 36.6725 107.246 35.6229 106.545 34.678C106.362 34.4266 106.274 34.118 106.297 33.8068C106.208 31.7926 104.982 30.551 102.964 30.5487C102.241 30.5472 101.69 30.2481 101.098 29.993C100.811 29.8686 100.555 29.631 100.762 29.1971C100.922 28.8589 101.076 28.6218 101.493 28.7291C104.324 29.4451 107.047 28.1047 109.847 28.2583C110.266 28.2813 110.744 28.2199 111.093 28.4009C114.223 30.0103 117.692 29.3961 120.958 30.0066C124.033 30.5833 127.414 30.3488 129.986 32.6874C130.762 33.3936 131.768 32.6112 132.606 33.2335C132.491 33.3944 132.336 33.5221 132.157 33.6034C131.978 33.6848 131.78 33.717 131.585 33.6968C130.089 33.5138 129.007 33.452 128.028 35.2788C127.179 36.8721 125.092 37.713 122.938 36.9774C122.92 37.7928 123.623 37.875 123.994 38.2567C124.255 38.5336 124.605 38.8348 124.453 39.1893C124.376 39.3607 123.863 39.3415 123.536 39.405C122.976 39.3058 122.797 38.534 122.027 38.5608C122.196 39.1753 123.178 38.9353 123.115 39.642Z" fill="#41B64A"/>
<path d="M124.949 70.057C124.993 70.1421 125.076 70.3 125.079 70.2977C126.182 69.7463 127.386 70.3806 128.488 69.9988C129.055 69.8009 129.745 69.5438 129.907 68.922C130.199 67.7978 131.029 67.4001 131.932 66.9416C132.494 66.6578 133.412 66.8112 133.482 65.6905C133.504 65.2941 134.323 65.2805 134.739 65.5136C135.675 66.0422 136.571 65.8719 137.419 65.4108C138.268 64.9498 138.74 65.2181 138.996 66.0819C139.337 67.359 140.162 68.4492 141.294 69.1186C142.309 69.7281 142.833 70.6859 142.252 72.0924C142.789 71.7477 143.371 71.673 143.172 70.9409C143.125 70.807 143.119 70.6622 143.154 70.5246C143.497 69.6451 143.513 69.6396 142.728 68.8878C141.859 68.0541 141.452 66.9011 140.723 65.9649C140.655 65.8959 140.604 65.8117 140.574 65.7191C140.544 65.6265 140.537 65.5281 140.552 65.4319C140.567 65.3356 140.604 65.2442 140.66 65.1649C140.717 65.0857 140.791 65.0209 140.877 64.9757C141.261 64.7632 141.383 65.0813 141.658 65.2674C142.794 66.0895 143.39 67.4836 144.698 68.1192C145.429 68.4763 145.622 69.2628 145.541 69.9278C145.344 71.461 146.005 72.263 147.359 72.5659C147.577 73.4042 146.398 72.5353 146.565 73.325C146.67 73.8093 146.854 74.4154 147.307 74.419C147.759 74.4226 148.097 73.8784 148.098 73.3257C148.124 73.0437 148.084 72.7597 147.981 72.4964C147.288 71.164 148.084 71.207 149.001 71.3395C149.806 71.127 150.509 71.1974 150.941 72.0366C150.754 72.9341 151.109 73.807 151.335 74.5915C151.595 75.5032 152.449 75.769 153.607 75.8436C154.865 75.9273 156.021 77.0286 157.514 76.5028C157.827 76.3926 158.101 77.0319 157.91 77.3901C157.47 78.2027 157.334 79.1078 157.01 79.9504C156.558 81.1291 155.775 81.8641 154.416 81.7185C154.273 81.469 154.063 81.2655 153.81 81.1314C153.557 80.9973 153.271 80.9382 152.985 80.9608C150.942 81.006 149.299 80.0402 147.685 78.9605C147.175 78.62 146.761 78.1533 146.122 78.0114C145.385 77.8576 144.857 77.8676 144.642 78.7974C144.428 79.7272 144.021 80.0081 142.951 79.51C141.097 78.6495 140.286 76.5344 138.225 75.9409C137.636 75.7712 137.359 74.9409 137.694 74.0012C138.326 72.2222 137.95 71.8686 136.091 72.0606C135.19 72.1448 134.283 71.9861 133.465 71.6009C132.981 71.3582 132.453 71.2161 131.913 71.1829C131.373 71.1498 130.832 71.2263 130.321 71.4079C128.309 72.1825 126.529 72.0953 124.797 70.8418C124.842 70.573 124.896 70.315 124.949 70.057Z" fill="#B01F23"/>
<path d="M220.92 118.594C221.547 118.973 221.795 119.499 222.083 119.986C222.37 120.473 221.904 120.637 221.634 120.87C221.25 121.206 220.704 121.501 220.921 122.114C221.857 124.747 219.15 125.608 218.383 127.409C218.279 127.653 217.778 127.915 217.534 127.633C216.967 126.979 216.164 127.127 215.486 126.881C213.971 126.331 212.863 124.134 213.422 122.608C213.51 122.366 213.79 122.012 213.972 122.018C215.668 122.079 216.747 120.902 218.077 120.149C219 119.625 220.077 119.252 220.92 118.594Z" fill="#EBEBEB"/>
<path d="M89.1685 36.6595C90.2383 35.1648 91.6797 36.1939 93.1964 36.2204C92.5237 35.4205 91.9912 34.511 91.6219 33.5306C91.3677 32.7987 90.7562 32.2762 89.6518 32.362C88.1761 32.4729 86.7856 31.7295 85.358 31.3587C85.0636 31.2798 84.6651 31.0036 85.0338 30.4893C85.5026 29.8291 87.3874 29.2885 88.2993 29.6103C88.3667 30.1511 87.6185 30.0888 87.5991 30.67C87.9378 30.843 88.1478 30.5181 88.4067 30.4052C89.5265 29.9247 90.593 29.5471 91.5049 30.8726C91.664 31.139 91.8993 31.3508 92.1801 31.4803C92.4609 31.6098 92.7742 31.6511 93.0791 31.5987C94.1687 31.4308 93.8379 32.9479 94.7643 33.1585C95.4965 33.3112 96.3807 33.5569 95.943 34.765C95.7109 35.4043 96.3104 35.7897 96.7125 36.1603C97.0787 36.4941 97.505 36.7761 96.9545 37.2847C96.5195 37.6856 96.0833 38.0219 95.5192 37.4391C95.2789 37.1476 94.9735 36.9175 94.6279 36.7675C94.2608 36.6471 93.8233 36.5998 93.8399 37.3143C93.8734 39.0771 93.8372 39.0695 92.1801 38.3086C92.0888 38.2638 91.9846 38.253 91.8859 38.2779C91.7872 38.3028 91.7003 38.3619 91.6404 38.4448C91.7036 38.894 92.3765 39.0109 92.3078 39.5496C90.9286 39.783 90.0712 39.06 89.1302 36.871C89.0393 36.8053 89.0153 36.7534 89.0558 36.7121C89.0964 36.6708 89.1378 36.6531 89.1685 36.6595Z" fill="#43B64A"/>
<path d="M234.84 130.81C236.082 129.898 237.193 129.627 238.576 130.781C240.062 132.016 241.82 132.877 243.078 134.412C243.606 135.054 243.999 135.482 243.667 136.489C243.418 137.239 243.95 138.199 244.506 138.917C244.811 139.312 245.293 139.576 245.396 140.306C244.836 140.222 244.307 139.992 243.863 139.638C243.419 139.284 243.075 138.819 242.865 138.289C242.696 137.79 242.423 137.334 242.063 136.951C241.355 136.282 240.653 136.192 240.016 137.016C239.17 138.092 238.349 137.461 237.789 136.83C237.229 136.198 236.88 135.619 235.779 135.939C236.912 134.68 236.85 133.769 235.782 132.856C235.245 132.396 234.692 131.953 234.144 131.502C234.126 131.03 234.704 131.144 234.84 130.81Z" fill="#EBEBEB"/>
<path d="M160.587 124.324C161.024 125.319 161.065 126.282 160.532 127.221C159.217 129.528 157.667 131.695 156.582 134.144C156.095 135.239 154.793 135.632 153.989 135.166C153.186 134.7 152.849 132.748 153.66 131.84C154.609 130.774 155.313 129.739 155.27 128.228C155.252 127.886 155.365 127.55 155.586 127.289C155.807 127.028 156.119 126.862 156.457 126.826C158.208 126.62 159.488 125.678 160.587 124.324Z" fill="#BABABA"/>
<path d="M202.85 115.869C204.24 116.571 205.286 117.281 205.757 118.646C205.87 119.009 206.078 119.333 206.36 119.585C208.247 121.097 208.486 123.561 209.718 125.456C209.837 125.637 209.915 125.843 209.943 126.058C209.972 126.274 209.952 126.493 209.884 126.7C209.816 126.907 209.702 127.095 209.551 127.251C209.4 127.407 209.216 127.526 209.012 127.6C208.131 127.981 207.872 127.172 207.438 126.608C206.034 124.788 205.873 122.477 205.023 120.436C204.39 118.958 203.213 117.765 202.85 115.869Z" fill="#EBEBEB"/>
<path d="M92.7683 27.7385C92.9894 27.3749 93.5527 27.9196 93.7147 27.3798C93.705 27.1056 93.7977 26.9816 94.0723 27.1412C94.3507 27.1993 94.869 27.5004 94.8073 27.0018C94.6031 25.4171 95.61 26.3147 95.991 26.438C97.0784 26.7963 98.1385 27.2017 99.2998 26.759C98.3836 26.5416 97.412 26.5615 96.6568 25.892C96.5677 25.8178 96.5432 25.7542 96.5861 25.7017C96.629 25.6492 96.6666 25.6219 96.6973 25.6283C98.1162 25.4412 99.4818 25.8722 100.869 26.0062C103.021 26.2178 105.153 26.6067 107.3 27.025C105.625 27.5215 103.951 28.1646 102.179 27.9005C100.294 27.6216 98.5127 28.1517 96.7707 28.5787C95.4023 28.9563 93.9425 28.773 92.7111 28.069C92.6841 28.0387 92.6665 28.0012 92.6604 27.9609C92.6544 27.9207 92.6601 27.8795 92.677 27.8424C92.7134 27.7651 92.7433 27.7333 92.7683 27.7385Z" fill="#47B64A"/>
<path d="M67.5767 27.4415C67.8727 26.9969 68.6374 27.6626 68.804 26.9189C68.7156 26.7523 68.6958 26.5572 68.7489 26.3756C68.802 26.1941 68.9236 26.0405 69.0878 25.948C69.5824 25.8091 70.1077 25.8315 70.588 26.012C70.6576 26.0265 70.7237 26.0578 70.7915 26.0807C71.8983 26.9172 73.4648 26.7053 74.5081 27.7626C74.8533 28.1272 75.2278 27.5293 75.581 27.3542C75.9341 27.1791 76.2421 27.1233 76.4774 27.4298C76.6582 27.6636 76.4274 27.8788 76.2409 28.0068C75.3698 28.6182 75.5985 29.1517 76.6252 29.7168C75.234 30.1057 74.1231 30.7521 73.0248 29.7359C72.5104 29.2629 72.0701 29.6189 71.5909 29.7297C69.8017 30.1322 67.8921 29.3566 67.277 27.973C67.2811 27.9534 67.2957 27.8833 67.3378 27.8628C67.3795 27.8407 67.4248 27.8263 67.4715 27.8204C67.7975 27.8376 68.1208 27.8884 68.4364 27.9718C68.0192 27.841 67.7096 27.7794 67.5767 27.4415Z" fill="#45B64A"/>
<path d="M232.93 94.5674C233.73 94.3391 234.179 93.5664 235.307 93.8925C236.955 94.35 238.664 92.1867 238.287 90.4812C238.211 90.1347 237.889 89.7045 238.39 89.4871C238.741 89.335 238.954 89.7364 239.179 89.9676C239.735 90.5487 240.027 91.2359 239.768 92.0307C239.654 92.441 239.633 92.8715 239.706 93.2906C239.871 94.7588 239.431 95.226 237.928 95.1878C237.062 95.1624 237.062 95.1624 236.435 95.9799C235.761 94.1567 234.081 95.2171 232.93 94.5674Z" fill="#BCBCBC"/>
<path d="M130.426 57.5942C130.777 57.5416 131.242 57.3604 130.685 57.0629C129.109 56.2632 130.686 55.834 130.938 55.6526C131.854 55.0212 131.879 54.7484 131.025 53.9822C130.418 53.4372 130.49 52.7002 130.937 52.0236C131.45 51.2323 131.833 51.8184 132.251 52.1307C132.358 52.1989 132.469 52.2593 132.585 52.3116C131.251 53.7894 133.814 54.5373 133.24 55.8837C133.196 55.9829 133.296 56.1616 133.363 56.2839C134.06 57.5383 133.765 57.8834 132.088 58.0137C131.621 58.0056 131.155 57.9672 130.694 57.8988C130.353 58.015 130.352 57.8364 130.426 57.5942Z" fill="#C12527"/>
<path d="M239.693 173.126C239.32 173.049 238.846 173.008 238.806 172.564C238.765 172.119 239.301 172.082 239.62 171.92C241.089 171.17 242.783 171.35 244.288 170.777C245.169 170.44 246.004 169.985 246.881 169.638C247.138 169.537 247.504 169.329 247.721 169.79C247.776 169.87 247.811 169.962 247.822 170.058C247.833 170.155 247.82 170.253 247.785 170.343C247.749 170.434 247.692 170.514 247.618 170.577C247.545 170.64 247.457 170.684 247.362 170.704C245.18 171.531 242.989 172.327 240.806 173.142C240.442 173.252 240.053 173.247 239.693 173.126Z" fill="#BCBCBC"/>
<path d="M168.915 48.2205C170.33 46.5051 171.779 45.1713 174.185 45.9771C175.059 46.2706 176.065 45.737 177.023 46.2995C176.372 46.9685 175.607 46.6511 174.914 46.6588C173.825 46.6717 172.759 46.6837 171.836 47.4217C171.16 47.9597 170.795 48.5128 171.552 49.3699C170.38 49.4856 169.822 48.5675 168.915 48.2205Z" fill="#C22A2A"/>
<path d="M207.112 114.969C208.998 116.559 209.598 118.598 209.243 121.126C206.995 119.697 206.862 117.58 206.975 115.365C206.952 115.331 206.937 115.293 206.932 115.252C206.927 115.212 206.931 115.171 206.945 115.133C206.958 115.094 206.98 115.059 207.009 115.031C207.038 115.003 207.074 114.982 207.112 114.969Z" fill="#BCBCBC"/>
<path d="M69.3343 26.0725C68.9229 26.2062 68.9092 26.5925 68.8035 26.9187C67.8788 26.1144 66.8035 26.256 65.7762 26.5569C65.161 26.7213 64.8208 26.5831 64.7211 26.0443C64.6213 25.5056 65.1997 25.6437 65.5172 25.5138C67.5384 24.5978 69.5291 24.3017 71.4465 25.8485C71.4051 26.2144 70.937 25.7979 70.8017 26.0711L70.7697 26.0849C70.2859 26.3294 69.8074 25.8375 69.3343 26.0725Z" fill="#4EB84C"/>
<path d="M121.799 43.7923C122.086 43.3224 122.698 43.5057 123.211 43.3434C124.356 42.9967 125.377 43.7421 126.498 43.534C126.888 43.4602 127.316 43.9034 127.335 44.3551C127.354 44.8069 126.844 44.7181 126.566 44.8268C124.781 45.4585 123.122 45.3351 121.799 43.7923Z" fill="#C22729"/>
<path d="M58.9059 69.0223C61.7728 69.0523 63.2255 71.2952 65.2545 72.9062C63.9801 73.4453 63.0787 72.7102 62.151 72.4642C61.8099 72.3726 61.7906 71.4058 61.2625 70.9709C60.7344 70.536 60.2879 69.9601 59.6251 69.6697C59.4967 69.324 58.7321 69.7031 58.9059 69.0223Z" fill="#4EB84C"/>
<path d="M216.431 132.161C215.493 131.837 214.491 131.625 213.627 131.161C212.35 130.47 210.887 130.364 209.62 129.655C209.337 129.494 208.957 129.301 209.021 128.992C209.113 128.552 209.618 128.61 209.978 128.583C210.211 128.588 210.438 128.66 210.632 128.789C211.638 129.368 212.583 129.825 213.865 129.905C214.772 129.96 215.617 131.254 216.613 131.815L216.431 132.161Z" fill="#BCBCBC"/>
<path d="M92.1614 29.8157L87.5003 28.4841C87.2867 28.422 87.0037 28.4274 86.9614 28.1289C86.9493 27.985 86.9893 27.8415 87.0739 27.7247C87.1586 27.6079 87.2823 27.5257 87.4222 27.4933C87.8052 27.342 88.3012 27.0533 88.6203 27.4037C89.6225 28.5051 91.0038 28.3453 92.2512 28.6463C92.7266 28.7629 93.5867 28.7198 93.5029 29.2613C93.3925 29.9582 92.4829 29.6252 92.1614 29.8157Z" fill="#57BA50"/>
<path d="M252.463 166.775C252.743 167.524 253.272 168.152 253.961 168.551C252.015 168.953 250.723 170.146 249.047 170.453C249.365 168.47 251.258 168.028 252.463 166.775Z" fill="#BCBCBC"/>
<path d="M149.642 39.4009C148.141 41.0281 148.024 41.033 146.744 39.4523C146.962 39.0443 147.601 39.704 147.606 39.2193C147.614 38.6358 147.108 38.9458 146.753 38.9479C146.428 38.9094 146.122 38.7722 145.876 38.5545C145.61 38.3528 145.078 38.2037 145.341 37.723C145.542 37.3553 145.939 37.6428 146.233 37.6953C147.431 37.91 148.552 38.4714 149.795 38.4876C149.873 38.5999 149.919 38.732 149.927 38.8693C149.895 39.0736 149.794 39.261 149.642 39.4009Z" fill="#C2292A"/>
<path d="M91.7843 50.3704C91.8536 50.9993 92.4608 51.0966 92.8292 51.4339C92.9613 51.5335 93.0643 51.6672 93.1273 51.8209C93.1904 51.9746 93.2111 52.1426 93.1874 52.3074C93.0869 52.7898 92.6742 52.5399 92.3861 52.6115C91.0429 52.9373 90.0105 52.0783 88.5355 51.7123L91.3454 49.995C91.7025 49.8705 91.7166 50.1514 91.7843 50.3704Z" fill="#47B64A"/>
<path d="M129.8 54.0456C129.56 55.0753 127.558 56.443 126.643 56.2728C126.532 56.2496 126.375 56.1671 126.341 56.0781C126.112 55.1965 127.118 54.7067 127.051 53.8677C127.932 53.8258 128.784 52.9559 129.69 53.7506C129.779 53.8158 129.78 53.9888 129.8 54.0456Z" fill="#C22829"/>
<path d="M226.301 113.21C225.01 112.897 224.642 111.694 224.442 110.718C224.294 110.032 224.905 109.165 225.269 108.421C225.426 108.1 225.848 108.249 225.973 108.512C226.269 109.089 226.696 109.769 226.219 110.357C225.477 111.271 225.74 111.987 226.397 112.736C226.432 112.769 226.458 112.811 226.472 112.857C226.486 112.903 226.489 112.952 226.479 112.999C226.47 113.046 226.448 113.091 226.417 113.128C226.386 113.164 226.346 113.193 226.301 113.21Z" fill="#BCBCBC"/>
<path d="M67.0296 144.831C66.5014 144.933 65.9585 144.927 65.4331 144.814C64.9077 144.701 64.4105 144.483 63.9712 144.173C63.4318 143.806 63.0712 143.291 63.5869 142.629C64.0609 142.014 64.4899 142.367 64.8853 142.742C65.5753 143.404 66.2617 144.082 67.0296 144.831Z" fill="#2B8845"/>
<path d="M240.923 87.677C240.219 88.2676 239.702 88.7685 238.979 88.1672C238.328 87.6247 238.172 88.2477 237.966 88.667C236.534 87.6486 238.714 86.6371 237.862 85.5844C238.777 86.4454 239.806 87.0314 240.923 87.677Z" fill="#BCBCBC"/>
<path d="M227.26 118.42C227.719 118.144 228.228 117.96 228.584 117.326C228.855 117.883 229.013 118.489 229.049 119.109C229.187 120.217 228 120.529 227.617 120.639C226.721 120.897 227.158 119.815 226.949 119.33C226.906 119.195 226.877 119.057 226.863 118.917C226.756 118.555 227.065 118.534 227.26 118.42Z" fill="#BCBCBC"/>
<path d="M234.84 130.81C234.81 131.257 234.367 131.296 234.13 131.511C233.745 131.351 233.369 131.164 232.97 131.043C232.62 130.935 232.203 130.626 232.399 130.406C233.399 129.304 232.192 129.017 231.739 128.46C233.031 127.726 233.55 127.992 233.758 129.393C233.854 130.037 233.572 131.052 234.84 130.81Z" fill="#BCBCBC"/>
<path d="M193.057 48.3686C192.146 47.5526 190.895 47.5903 189.866 47.1183C189.221 46.8258 188.599 46.4942 187.879 46.4113C187.612 46.3792 187.228 46.3665 187.272 45.9775C187.308 45.666 187.648 45.5672 187.929 45.5146C188.534 45.4007 189.02 45.7421 189.516 45.9977C190.723 46.6444 191.919 47.3062 193.121 47.9635C193.144 47.9941 193.16 48.029 193.169 48.0661C193.178 48.1032 193.18 48.1417 193.174 48.1795C193.168 48.2172 193.154 48.2534 193.134 48.2859C193.114 48.3184 193.088 48.3465 193.057 48.3686Z" fill="#F16038"/>
<path d="M226.516 165.282C226.783 166.119 227.98 165.224 228.249 166.082C228.381 166.493 226.163 167.617 225.623 167.416C225.397 167.334 225.079 167.241 225.203 166.828C225.357 166.281 226.17 165.183 226.516 165.282Z" fill="#BCBCBC"/>
<path d="M223.718 127.049C223.003 127.485 223.384 128.056 223.548 128.549C223.681 128.958 224.014 129.434 223.432 129.579C223.031 129.679 222.772 129.219 222.74 128.718C222.712 128.088 222.437 127.721 221.745 128.083C221.471 128.213 221.523 128.83 221.001 128.589L221.004 128.575C220.963 128.367 220.969 128.152 221.02 127.946C221.071 127.739 221.166 127.547 221.299 127.381C221.437 127.223 221.577 127.065 221.717 126.909C222.089 126.797 221.718 125.929 222.449 126.184C222.594 126.507 222.929 126.515 223.198 126.633C223.574 126.53 223.855 126.533 223.718 127.049Z" fill="#BCBCBC"/>
<path d="M207.112 114.969L206.975 115.365C205.357 114.024 205.347 112.5 206.44 110.823C206.56 110.568 206.642 110.297 206.683 110.019C206.77 110.037 206.856 110.055 206.942 110.073C207.058 110.357 207.094 110.668 207.045 110.972C206.037 112.339 207.253 113.638 207.112 114.969Z" fill="#BCBCBC"/>
<path d="M66.3274 73.7652C67.4709 73.8543 68.5431 74.1041 69.2713 75.3767C68.2081 75.3629 67.2563 75.7058 66.3184 75.1884C65.795 74.7165 66.025 74.2406 66.3274 73.7652Z" fill="#55B94E"/>
<path d="M82.4442 34.9009C82.807 35.1258 83.1817 35.321 83.5124 35.5742C83.8431 35.8275 84.1283 36.1035 83.8214 36.5166C83.557 36.8653 83.2062 36.6809 82.9634 36.4518C82.6218 36.1114 82.2008 36.1524 81.787 36.1305C81.4368 36.1102 80.9098 36.3808 80.7931 35.9233C80.6764 35.4659 81.2538 35.2878 81.606 35.1037C81.8763 35.0024 82.1578 34.9343 82.4442 34.9009Z" fill="#53B94E"/>
<path d="M93.2921 25.6324C91.9868 26.5981 90.9051 26.3521 89.64 25.4388C90.9684 25.031 92.0874 24.5268 93.2921 25.6324Z" fill="#52B84D"/>
<path d="M190.885 109.772C191.302 110.334 191.571 110.994 191.664 111.691C191.736 112.39 191.445 112.634 190.827 112.669C190.162 112.712 190.262 112.285 190.276 111.84C190.295 111.095 190.186 110.338 190.885 109.772Z" fill="#BCBCBC"/>
<path d="M79.6181 28.4593C80.1182 28.1509 80.5619 27.6669 81.2054 27.8128C81.5284 27.8801 82.0517 27.5298 82.1446 28.0876C82.208 28.4666 81.8227 28.8516 81.5123 28.9332C80.7382 29.1347 79.8688 29.8489 79.1792 28.7395C79.2 28.4307 79.3211 28.3096 79.6181 28.4593Z" fill="#57BA4F"/>
<path d="M85.5376 28.9528C85.4696 29.0757 85.3684 29.1769 85.2459 29.2445C85.1233 29.3122 84.9843 29.3436 84.8449 29.3351C84.4304 29.3306 84.0175 29.2768 83.6021 29.2487C83.2732 29.224 82.7586 29.6581 82.6572 29.1132C82.5393 28.4799 83.1817 28.4646 83.6171 28.3827C84.1203 28.2735 84.6431 28.3036 85.1299 28.4698C85.3456 28.5499 85.5622 28.6536 85.5376 28.9528Z" fill="#5DBB51"/>
<path d="M149.745 38.752C149.772 38.6661 149.79 38.5778 149.8 38.4884C151.146 37.8588 152.233 39.1681 153.542 39.005C153.775 38.9745 153.766 39.4643 153.42 39.5911C152.917 39.7445 152.377 39.7138 151.895 39.5045C151.451 39.169 150.923 39.5008 150.455 39.3331C150.291 39.3238 150.134 39.2627 150.007 39.1583C149.879 39.054 149.788 38.9119 149.745 38.752Z" fill="#CB3C39"/>
<path d="M225.427 104.524C224.578 103.665 224.677 102.995 225.413 102.365C225.615 102.19 225.965 101.859 226.112 102.162C226.56 103.075 225.909 103.747 225.427 104.524Z" fill="#BCBCBC"/>
<path d="M41.8972 41.3818C41.334 41.4078 41.151 40.8781 40.8123 40.5938C40.4735 40.3096 40.1009 39.8252 40.4247 39.401C40.9281 38.7422 41.2675 39.5387 41.6874 39.6847C42.3288 40.1754 42.5663 40.7224 41.8972 41.3818Z" fill="#59BA50"/>
<path d="M123.115 39.6417C122.889 39.4835 122.653 39.3422 122.407 39.2191C122.064 39.0775 121.498 39.5769 121.386 38.9331C121.37 38.8392 121.686 38.1325 121.977 38.0176C122.504 37.8054 122.789 38.3067 123.057 38.7078C123.208 38.9414 123.38 39.1616 123.541 39.3941L123.115 39.6417Z" fill="#E7F3E3"/>
<path d="M236.468 81.4135C236.129 80.6552 235.604 79.9838 235.443 79.1515L235.415 79.1631C236.293 79.4807 236.693 80.3074 237.292 80.9298C237.969 81.6269 237.044 81.5218 236.861 81.7879C236.611 81.7885 236.514 81.625 236.468 81.4135Z" fill="#BCBCBC"/>
<path d="M232.936 97.5769C232.749 96.9993 232.665 96.4405 232.312 95.9837C232.136 95.7567 232.029 95.4915 232.35 95.2718C232.672 95.0521 232.838 95.3587 233.015 95.5391C233.675 96.2209 233.662 96.8825 232.936 97.5769Z" fill="#BCBCBC"/>
<path d="M222.936 135.141C223.957 133.975 224.89 133.471 226.246 134.491C225.036 134.247 224.197 135.038 222.936 135.141Z" fill="#BCBCBC"/>
<path d="M223.649 115.007C223.266 116.285 222.845 116.636 221.485 116.804C222.036 116.023 222.783 115.403 223.649 115.007Z" fill="#BCBCBC"/>
<path d="M236.468 81.4138L236.861 81.7882L238.234 84.5794C236.53 83.8232 236.731 82.4928 236.468 81.4138Z" fill="#BCBCBC"/>
<path d="M63.6016 67.3295C63.5233 66.9942 62.99 66.807 63.3319 66.2959C64.0464 66.2546 64.0017 67.6675 65.052 67.1168C64.4332 67.6463 63.7854 67.8829 63.4033 68.4616C63.1052 68.0103 63.2904 67.6656 63.6016 67.3295Z" fill="#DEEED9"/>
<path d="M217.009 105.14C216.593 105.738 216.448 106.436 215.649 106.267C215.514 106.214 215.404 106.111 215.342 105.979C215.28 105.847 215.27 105.696 215.315 105.556C215.666 104.836 216.28 105.011 217.009 105.14Z" fill="#BCBCBC"/>
<path d="M41.8977 41.3817C42.2149 40.766 41.8847 40.2319 41.6879 39.6846L42.1364 39.4006C42.55 40.2038 43.587 40.9847 42.2062 41.8528L41.8977 41.3817Z" fill="#E9F4E6"/>
<path d="M149.745 38.7523L150.576 39.2004C150.752 39.2036 150.925 39.2469 151.082 39.3273C151.239 39.4076 151.375 39.5229 151.481 39.6643C151.394 40.2108 152.312 39.931 152.143 40.5893C151.426 40.6244 150.708 40.7409 150.497 39.6756C150.424 39.3033 149.975 39.3941 149.642 39.4009C149.675 39.1854 149.712 38.9677 149.745 38.7523Z" fill="#C9403B"/>
<path d="M221.012 128.592C221.259 128.424 221.509 128.256 221.757 128.086C221.746 128.514 221.712 128.954 221.726 129.364C221.734 129.714 221.744 130.029 221.33 130.174C221.246 130.215 221.151 130.228 221.06 130.209C220.969 130.19 220.886 130.14 220.826 130.069C220.593 129.792 220.771 129.554 220.893 129.29C220.962 129.063 221.002 128.828 221.012 128.592Z" fill="#BCBCBC"/>
<path d="M79.1605 30.9739C78.42 31.1122 77.6865 31.9689 77.0707 30.7841C77.7697 30.5523 78.4422 29.9463 79.1605 30.9739Z" fill="#5CBB50"/>
<path d="M89.1688 36.6595C89.1655 36.7314 89.1507 36.8025 89.125 36.8698C88.4472 36.7086 87.7473 36.6616 87.0536 36.7306C86.9957 36.7418 86.9361 36.7401 86.879 36.7256C86.8219 36.7112 86.7687 36.6843 86.7231 36.6469C86.6775 36.6095 86.6405 36.5625 86.6149 36.5092C86.5893 36.4559 86.5756 36.3975 86.5747 36.3382C86.5692 36.0444 86.8981 36.0135 87.0796 35.9928C87.8722 35.8975 88.5143 36.3152 89.1688 36.6595Z" fill="#5CBB52"/>
<path d="M193.057 48.3688C193.086 48.2342 193.116 48.0883 193.122 47.9609C194.428 47.6742 195.143 48.7597 196.114 49.2576L194.691 49.0077C194.332 48.3155 193.574 48.6491 193.057 48.3688Z" fill="#F37555"/>
<path d="M254.525 153.203C253.767 152.768 253.19 152.072 252.9 151.243C252.824 151.051 252.621 150.798 252.941 150.628C253.262 150.458 253.311 150.752 253.408 150.954C253.781 151.708 254.154 152.458 254.525 153.203Z" fill="#BCBCBC"/>
<path d="M141.205 55.9753L141.036 55.39C141.606 55.6842 142.211 55.0671 142.765 55.4578L142.759 55.4212C142.973 55.94 142.837 56.3418 142.311 56.5483C141.786 56.7549 141.479 56.3602 141.205 55.9753Z" fill="#CD4540"/>
<path d="M67.5762 27.4415L69.6922 27.8826C69.3558 28.0924 68.9654 28.197 68.5705 28.183C68.1756 28.1689 67.7941 28.0369 67.4746 27.8037L67.5762 27.4415Z" fill="#E5F2E2"/>
<path d="M258.326 147.721C258.08 148.205 257.834 148.689 257.54 149.278C257.348 149.089 257.209 148.852 257.137 148.592C257.064 148.331 257.062 148.056 257.129 147.793C257.209 147.685 257.315 147.6 257.437 147.544C257.764 147.452 258.092 147.356 258.326 147.721Z" fill="#BCBCBC"/>
<path d="M58.9055 69.0223L59.6219 69.6691C58.8704 69.3719 58.1285 69.7674 57.18 69.8302C57.6995 69.0518 58.3366 69.1173 58.9055 69.0223Z" fill="#5DBB53"/>
<path d="M92.7682 27.7384L92.7015 28.0581C91.8745 28.4856 91.3289 27.8978 90.5945 27.4492C91.4483 27.3111 92.0971 27.6132 92.7682 27.7384Z" fill="#6EBF52"/>
<path d="M235.447 79.1376C234.918 78.6763 234.41 78.2016 234.433 77.1559C234.784 77.342 235.068 77.6344 235.245 77.9921C235.421 78.3497 235.482 78.7544 235.418 79.1492L235.447 79.1376Z" fill="#BCBCBC"/>
<path d="M71.4055 142.459C71.0066 142.812 70.6689 143.415 70.1474 142.809C69.9956 142.631 69.5999 142.355 69.8244 142.156C70.4058 141.625 70.8433 142.439 71.4055 142.459Z" fill="#218240"/>
<path d="M217.681 132.559C218.338 132.193 218.83 132.354 219.477 132.916C218.7 133.061 218.125 133.354 217.681 132.559Z" fill="#BCBCBC"/>
<path d="M66.3273 73.7651C66.1724 74.227 66.1702 74.7265 66.321 75.1889L64.3944 74.7873C64.7254 73.952 65.4334 74.9453 65.8412 74.4802C66.1128 74.3202 65.4631 73.5205 66.3273 73.7651Z" fill="#61BB4A"/>
<path d="M228.544 115.665C228.486 115.827 228.384 115.969 228.25 116.076C228.115 116.182 227.953 116.247 227.783 116.264C227.602 116.279 227.503 115.989 227.586 115.813C227.722 115.525 227.866 115.166 228.285 115.248C228.394 115.27 228.464 115.531 228.544 115.665Z" fill="#BCBCBC"/>
<path d="M228.844 126.054C229.064 125.462 228.946 124.633 230.052 124.442C229.803 124.94 229.633 125.282 229.46 125.624C229.265 125.764 229.346 126.349 228.844 126.054Z" fill="#BCBCBC"/>
<path d="M227.26 118.42C227.127 118.586 226.994 118.751 226.865 118.923C226.609 118.577 225.675 119.058 225.898 118.391C226.178 117.565 226.786 118.453 227.26 118.42Z" fill="#BCBCBC"/>
<path d="M225.931 114.707C226.232 114.77 226.463 114.818 226.384 115.045C226.287 115.317 226.241 115.732 225.839 115.721C225.782 115.717 225.726 115.7 225.676 115.672C225.625 115.644 225.582 115.605 225.548 115.558C225.514 115.511 225.491 115.457 225.479 115.4C225.468 115.344 225.469 115.285 225.483 115.228C225.566 115.009 225.686 114.688 225.931 114.707Z" fill="#BCBCBC"/>
<path d="M258.327 147.721L257.45 147.831C257.351 147.712 257.284 147.569 257.255 147.416C257.227 147.263 257.237 147.105 257.286 146.957C257.98 146.736 258.603 146.62 258.327 147.721Z" fill="#BCBCBC"/>
<path d="M275.632 149.976C275.114 149.76 274.642 149.793 274.624 149.237C274.625 149.19 274.636 149.144 274.656 149.102C274.676 149.061 274.705 149.024 274.741 148.994C274.777 148.964 274.818 148.943 274.863 148.931C274.908 148.919 274.955 148.918 275 148.926C275.598 148.986 275.457 149.466 275.632 149.976Z" fill="#BCBCBC"/>
<path d="M265.949 151.347C265.882 151.473 265.774 151.573 265.643 151.631C265.513 151.688 265.367 151.699 265.229 151.662C264.951 151.604 264.872 151.242 264.924 150.981C264.933 150.923 264.958 150.868 264.995 150.823C265.032 150.777 265.08 150.743 265.135 150.722C265.19 150.702 265.25 150.697 265.307 150.708C265.364 150.718 265.418 150.744 265.462 150.783C265.684 150.914 265.989 151.001 265.949 151.347Z" fill="#BCBCBC"/>
<path d="M222.461 126.184L221.729 126.909C221.834 126.226 221.904 125.529 222.464 125.014C222.489 124.994 222.518 124.98 222.55 124.973C222.581 124.967 222.613 124.968 222.644 124.977C222.674 124.987 222.702 125.003 222.725 125.026C222.747 125.049 222.764 125.077 222.773 125.108C222.67 125.478 222.564 125.831 222.461 126.184Z" fill="#BCBCBC"/>
<path d="M222.772 125.122L222.464 125.029C222.828 124.466 223.26 124.08 223.975 124.439C224.091 124.806 223.76 124.831 223.575 124.965L222.772 125.122Z" fill="#BCBCBC"/>
<path d="M246.493 135.823L248.108 135.141C247.889 136.082 247.248 136.05 246.794 136.275C246.704 136.24 246.626 136.178 246.573 136.097C246.519 136.016 246.491 135.92 246.493 135.823Z" fill="#BCBCBC"/>
<path d="M222.4 133.698C221.765 133.565 221.213 134.012 220.883 133.349C220.795 133.173 220.712 133 220.932 132.879C221.262 132.688 221.406 132.961 221.601 133.168C221.848 133.372 222.116 133.55 222.4 133.698Z" fill="#BCBCBC"/>
<path d="M225.064 158.366C225.498 158.807 225.481 159.331 225.287 159.875C224.893 159.729 225.441 159.053 224.841 159.045C224.598 159.038 224.314 159.105 224.494 158.741C224.583 158.555 224.868 158.483 225.064 158.366Z" fill="#BCBCBC"/>
<path d="M235.16 95.7606C235.116 95.9184 235.025 96.0589 234.899 96.1631C234.774 96.2673 234.619 96.3301 234.457 96.3428C234.131 96.3626 234.193 96.0097 234.165 95.8225C234.104 95.4176 234.472 95.4358 234.713 95.3925C234.768 95.3749 234.826 95.3713 234.883 95.382C234.939 95.3928 234.992 95.4176 235.036 95.4542C235.081 95.4908 235.115 95.538 235.137 95.5915C235.158 95.645 235.166 95.7031 235.16 95.7606Z" fill="#BCBCBC"/>
<path d="M225.047 124.929L226.336 125.198C225.545 125.797 225.545 125.797 224.65 125.2C224.681 125.12 224.736 125.051 224.806 125.003C224.877 124.954 224.961 124.928 225.047 124.929Z" fill="#BCBCBC"/>
<path d="M252.796 141.082L253.622 140.241C253.886 141.139 253.886 141.139 252.796 141.082Z" fill="#BCBCBC"/>
<path d="M61.0809 73.8624C61.6754 73.6586 62.0767 73.9354 62.4735 74.3312C61.673 74.6179 61.673 74.6179 61.0809 73.8624Z" fill="#67BD55"/>
<path d="M246.493 135.823L246.794 136.275C246.226 136.631 245.839 136.424 245.514 135.906C245.862 135.63 246.185 135.756 246.493 135.823Z" fill="#BCBCBC"/>
<path d="M29.2403 29.9647C29.5325 29.6919 29.8515 29.8199 30.153 29.9208C30.0817 30.2629 30.7825 30.3154 30.4803 30.706C30.2854 30.958 29.966 30.8036 29.7023 30.7311C29.6729 30.7008 29.6533 30.6623 29.6459 30.6206C29.6386 30.5789 29.6438 30.5359 29.661 30.4971C29.6968 30.4227 29.7295 30.3914 29.7518 30.3961C29.6987 30.107 29.4418 30.071 29.2403 29.9647Z" fill="#9FD190"/>
<path d="M154.498 83.9799L154.095 83.2757C154.038 83.1635 154.026 83.0338 154.06 82.9123C154.093 82.7909 154.172 82.6866 154.278 82.6203C154.474 82.7242 154.636 82.882 154.746 83.0753C154.856 83.2687 154.909 83.4896 154.899 83.7125L154.498 83.9799Z" fill="#FEE6D1"/>
<path d="M248.735 134.505C248.489 134.384 248.27 134.215 248.089 134.008C247.909 133.802 247.771 133.561 247.684 133.3C247.967 133.355 248.224 133.504 248.414 133.722C248.604 133.94 248.717 134.215 248.735 134.505Z" fill="#BCBCBC"/>
<path d="M226.302 113.21C226.335 113.05 226.368 112.89 226.402 112.731C226.951 112.714 227.518 112.671 227.637 113.436C227.108 113.706 226.75 113.204 226.302 113.21Z" fill="#BCBCBC"/>
<path d="M225.046 124.929L224.65 125.2L223.573 124.976L223.973 124.451C224.345 124.575 224.842 124.433 225.046 124.929Z" fill="#BCBCBC"/>
<path d="M26.5698 28.9661C26.8029 28.9767 27.0359 29.0018 27.2675 28.9916C27.4992 28.9813 27.8899 28.6677 27.972 29.0682C28.0542 29.4687 27.6404 29.558 27.2889 29.5579L26.5698 28.9661Z" fill="#DEEED9"/>
<path d="M71.224 76.0179C70.9616 76.566 70.5725 76.4673 70.194 76.207C70.1559 76.1535 70.1299 76.0923 70.1178 76.0276C70.1057 75.9629 70.1078 75.8963 70.1239 75.8324C70.2081 75.7709 70.3036 75.7269 70.4048 75.703C70.506 75.679 70.6108 75.6755 70.7132 75.6928C70.8157 75.7101 70.9136 75.7477 71.0013 75.8035C71.089 75.8593 71.1647 75.9322 71.224 76.0179Z" fill="#5DBB50"/>
<path d="M72.3145 84.0641C72.6144 83.9217 72.8347 83.3941 73.2445 83.7839C73.4866 84.0158 73.1416 84.2774 73.1029 84.5328C72.6971 84.612 72.2583 84.7518 72.3145 84.0641Z" fill="#84C775"/>
<path d="M63.6015 67.3297C63.5232 67.7055 63.4705 68.0837 63.4038 68.459C63.0336 68.6745 62.8888 68.3516 62.8909 68.1326C62.8837 68.0327 62.8965 67.9323 62.9286 67.8374C62.9607 67.7425 63.0114 67.655 63.0777 67.5801C63.144 67.5052 63.2245 67.4444 63.3145 67.4014C63.4045 67.3584 63.5021 67.334 63.6015 67.3297Z" fill="#5DBB4B"/>
<path d="M156.768 123.359C156.416 123.929 156.105 123.987 155.7 123.856C155.769 123.218 156.21 123.412 156.768 123.359Z" fill="#FFF5CD"/>
<path d="M42.1401 34.9068C41.9787 35.0956 41.8979 35.4416 41.5501 35.3399C41.4304 35.3149 41.3041 35.0428 41.3194 34.8997C41.3294 34.831 41.3531 34.7651 41.3891 34.7059C41.4251 34.6466 41.4726 34.5953 41.5288 34.5551C41.585 34.5148 41.6487 34.4864 41.716 34.4716C41.7833 34.4568 41.8529 34.4559 41.9205 34.4689C42.1491 34.4873 42.1789 34.6925 42.1401 34.9068Z" fill="#75C162"/>
<path d="M151.481 39.6645C151.305 39.6646 151.13 39.6227 150.973 39.5421C150.816 39.4614 150.68 39.3444 150.576 39.2006C151.134 38.7786 151.502 39.1916 151.89 39.5037L151.481 39.6645Z" fill="#F0C4C4"/>
<path d="M65.8377 74.4824C65.4694 75.1343 64.7794 74.2355 64.3909 74.7895C63.8538 74.6483 63.861 74.363 64.3582 74.2911C64.8555 74.2191 65.3419 74.4083 65.8377 74.4824Z" fill="#B9DDAE"/>
<path d="M228.845 126.054L229.474 125.626C229.562 126.069 229.79 126.635 229.133 126.746C228.742 126.826 228.668 126.415 228.845 126.054Z" fill="#BCBCBC"/>
<path d="M228.63 129.384C229.003 129.236 229.305 129.293 229.495 129.634C229.524 129.69 229.374 129.937 229.308 129.935C228.955 129.928 228.66 129.809 228.63 129.384Z" fill="#BCBCBC"/>
<path d="M82.5767 52.8258C82.953 52.5677 83.4566 52.4649 83.553 52.9503C83.6329 53.3474 83.112 53.2124 82.8172 53.1773L82.5767 52.8258Z" fill="#E3F1DE"/>
<path d="M74.9861 78.8446C75.0808 79.0682 75.153 79.3009 75.2015 79.5391C75.2224 79.7454 75.0438 79.9335 74.8761 79.7903C74.7084 79.647 74.6924 79.3891 74.6645 79.1609C74.6539 79.1002 74.825 79.0041 74.9861 78.8446Z" fill="#C7E3BE"/>
<path d="M174.555 50.6543C174.433 50.6213 174.304 50.6268 174.186 50.6701C174.067 50.7134 173.964 50.7924 173.891 50.8964C173.78 50.7316 173.636 50.5922 173.467 50.4871C173.299 50.382 173.111 50.3135 172.915 50.286C173.024 49.7616 173.278 49.9374 173.527 50.1385C173.879 50.3144 174.319 50.2803 174.555 50.6543Z" fill="#BF2628"/>
<path d="M251.472 138.751C250.913 138.564 250.782 138.203 250.702 137.654C251.264 137.871 251.414 138.209 251.472 138.751Z" fill="#BCBCBC"/>
<path d="M252.507 165.032C252.922 165.411 252.951 165.692 252.622 165.957C252.552 166.018 252.307 166.008 252.284 165.963C252.212 165.805 252.195 165.628 252.236 165.459C252.276 165.29 252.372 165.139 252.507 165.032Z" fill="#BCBCBC"/>
<path d="M72.3149 84.0642C72.3743 84.5595 72.7388 84.5389 73.0917 84.5188C73.0519 84.7095 73.0127 84.8974 72.9608 85.0768C72.7481 85.0295 72.5482 84.9361 72.3753 84.803C72.2023 84.6699 72.0604 84.5003 71.9594 84.3062L72.3149 84.0642Z" fill="#DFF0DF"/>
<path d="M225.972 116.685C226.089 116.499 226.184 116.241 226.462 116.354C226.615 116.416 226.796 116.582 226.664 116.78C226.533 116.978 226.345 117.252 226.205 117.24C226.005 117.225 225.926 116.936 225.972 116.685Z" fill="#BCBCBC"/>
<path d="M59.2047 82.8063C59.0777 82.8998 58.9501 82.9961 58.8253 83.093L58.15 82.2353C58.1657 82.1811 58.1772 82.1258 58.1845 82.0698C58.7669 81.9659 58.9544 82.4322 59.2047 82.8063Z" fill="#41934B"/>
<path d="M130.426 57.5943L130.689 57.9213C130.192 58.274 129.751 57.9217 129.275 57.7377L130.426 57.5943Z" fill="#CF3938"/>
<path d="M91.7839 50.3702L91.3467 49.9864C91.6358 49.6312 92.0304 49.6754 92.7762 49.4563L91.7839 50.3702Z" fill="#64BC50"/>
<path d="M160.947 51.9117L160.567 52.1866L159.776 51.4803C160.238 51.439 160.656 51.4941 160.947 51.9117Z" fill="#CE3634"/>
<path d="M64.5388 81.2583L64.2705 80.7751C64.4801 80.5642 64.7912 80.4096 64.9453 80.6875C65.0995 80.9655 64.807 81.1562 64.5388 81.2583Z" fill="#136936"/>
<path d="M66.6115 71.05C67.1222 70.7322 67.4166 70.8111 67.7339 71.2401C67.5457 71.3053 67.3443 71.322 67.1483 71.2888C66.9523 71.2556 66.7677 71.1735 66.6115 71.05Z" fill="#81C56B"/>
<path d="M218.561 154.719C219.128 154.149 219.699 154.713 220.269 154.706C220.248 154.786 220.232 154.866 220.219 154.947L218.561 154.719Z" fill="#BCBCBC"/>
<path d="M212.626 155.22C213.241 154.778 213.773 155.014 214.279 155.43L212.626 155.22Z" fill="#BCBCBC"/>
<path d="M79.6179 28.459L79.194 28.7364C78.936 28.5803 78.4054 28.4638 78.6848 28.127C78.9298 27.8298 79.3647 28.1546 79.6179 28.459Z" fill="#85C772"/>
<path d="M266.809 150.303C266.959 150.375 267.218 150.362 267.142 150.627C267.128 150.672 267.105 150.714 267.075 150.75C267.044 150.786 267.007 150.816 266.965 150.838C266.924 150.86 266.878 150.873 266.831 150.877C266.784 150.881 266.737 150.875 266.692 150.861C266.497 150.82 266.336 150.687 266.369 150.474C266.412 150.211 266.633 150.295 266.809 150.303Z" fill="#BCBCBC"/>
<path d="M224.11 126.525C224.395 126.315 224.74 126.176 224.846 126.629C224.913 126.921 224.557 126.887 224.333 126.876C224.237 126.765 224.093 126.703 224.11 126.525Z" fill="#BCBCBC"/>
<path d="M96.6906 25.618C96.6725 25.705 96.6544 25.7919 96.6502 25.8817L95.2024 25.58C95.8749 25.3222 96.2783 25.5613 96.6906 25.618Z" fill="#65BC4A"/>
<path d="M250.135 137.805C249.599 137.717 249.507 137.432 249.603 136.942C249.772 137.01 249.914 137.131 250.01 137.286C250.106 137.441 250.149 137.623 250.135 137.805Z" fill="#BCBCBC"/>
<path d="M220.521 133.988C220.568 134.15 220.605 134.266 220.641 134.384C220.526 134.434 220.402 134.461 220.276 134.463C220.143 134.436 219.997 134.326 220.128 134.169C220.199 134.082 220.352 134.061 220.521 133.988Z" fill="#BCBCBC"/>
<path d="M94.0639 27.1394L93.7062 27.378C93.5393 27.273 93.1225 27.2797 93.32 26.9873C93.5513 26.658 93.8702 26.8006 94.0639 27.1394Z" fill="#93CC82"/>
<path d="M221.313 127.384C221.23 127.786 221.118 128.181 221.018 128.578C220.518 128.038 220.818 127.685 221.313 127.384Z" fill="#BCBCBC"/>
<path d="M257.287 146.949C257.371 147.076 257.429 147.219 257.457 147.369C257.485 147.519 257.483 147.673 257.451 147.823L257.129 147.793C256.896 147.458 256.88 147.162 257.287 146.949Z" fill="#BCBCBC"/>
<path d="M65.9465 71.5496C65.9147 71.608 65.8718 71.6596 65.8201 71.7012C65.7685 71.7429 65.7091 71.7738 65.6455 71.7921C65.5819 71.8105 65.5154 71.8159 65.4498 71.8081C65.3842 71.8003 65.3208 71.7794 65.2633 71.7466C65.1149 71.6923 65.0873 71.546 65.2465 71.4651C65.4052 71.3782 65.5814 71.3289 65.7617 71.3208C65.8744 71.3238 66.0255 71.449 65.9465 71.5496Z" fill="#6EBF56"/>
<path d="M29.7523 30.3962C29.7295 30.5056 29.72 30.6207 29.7028 30.7312C29.4992 30.8438 29.2817 30.9536 29.1025 30.726C29.0452 30.6526 29.0964 30.4907 29.0959 30.3676L29.7523 30.3962Z" fill="#8CCA7A"/>
<path d="M207.034 110.985C206.742 110.713 206.867 110.394 206.931 110.086C207.014 110.103 207.101 110.121 207.184 110.138C207.304 110.441 207.342 110.748 207.034 110.985Z" fill="#BCBCBC"/>
<path d="M211.182 155.194C211.683 154.728 212.172 155.125 212.668 155.211C212.165 155.604 211.677 155.145 211.182 155.194Z" fill="#BCBCBC"/>
<path d="M173.54 50.1415C173.328 50.1704 173.084 50.0463 172.929 50.2891C172.631 50.227 172.29 49.9219 172.507 49.7622C172.856 49.4927 173.283 49.7455 173.54 50.1415Z" fill="#D3534F"/>
<path d="M224.11 126.525L224.33 126.863L223.714 127.027C223.677 126.919 223.612 126.824 223.525 126.751C223.437 126.678 223.332 126.631 223.219 126.614C223.483 126.379 223.814 126.592 224.11 126.525Z" fill="#BCBCBC"/>
<path d="M150.93 72.0315C150.412 71.4405 149.69 71.416 148.99 71.3343C149.327 70.8193 149.78 70.8611 150.207 71.1403C150.897 71.5943 151.638 71.3976 152.39 71.4549C151.793 69.7327 153.55 66.9912 155.282 66.7905C156.056 66.703 156.59 67.4171 156.547 67.7622C156.358 69.1859 157.09 69.0459 157.983 68.8312C158.337 68.5247 157.912 68.4067 157.835 68.2152C157.654 67.8292 157.752 67.6125 158.193 67.5318C159.046 67.3993 159.899 67.2613 160.783 67.1178C159.629 69.4932 159.617 69.5083 161.687 71.1426C162.147 71.5043 162.514 71.9721 162.757 72.5068C161.949 73.9859 160.423 73.8055 159.235 72.9432C157.813 71.9035 156.526 71.3602 154.584 71.6342C153.436 71.7871 152.214 72.8843 150.93 72.0315Z" fill="#B01F23"/>
<path d="M167.907 75.936C169.064 75.741 168.342 74.9116 168.187 74.5955C167.817 73.689 167.394 72.8054 166.92 71.9493C166.352 71.0233 166.789 70.7515 167.38 70.4387C168.121 70.046 168.826 69.5082 169.731 69.5272C170.032 69.4786 170.309 69.2086 170.617 69.4601C170.955 70.151 171.842 70.5495 171.725 71.4761C171.347 71.81 171.134 71.3294 170.832 71.328C170.344 71.3258 169.857 71.3793 169.584 71.8375C169.28 72.3595 169.583 72.8322 169.949 73.084C170.543 73.4801 170.832 74.2543 171.647 74.3861C172.271 74.4841 172.356 75.166 172.441 75.5935C172.559 76.1127 171.952 75.9452 171.629 76.0447C170.952 76.2547 171.422 76.7768 171.543 76.9484C171.753 77.2013 171.893 77.5054 171.95 77.8304C172.006 78.1555 171.977 78.49 171.865 78.8007C171.804 78.9947 171.698 79.1717 171.557 79.3176C171.416 79.4636 171.243 79.5744 171.052 79.6414C170.86 79.7084 170.657 79.7296 170.456 79.7035C170.256 79.6773 170.064 79.6045 169.897 79.4907C168.695 78.6255 167.555 77.7091 167.907 75.936Z" fill="#B01F23"/>
<path d="M170.637 69.4642C170.509 69.5543 170.359 69.6081 170.203 69.6199C170.047 69.6317 169.891 69.6011 169.751 69.5313C170.342 68.8994 169.457 68.156 169.902 67.5142C170.502 68.0226 170.225 68.875 170.637 69.4642Z" fill="#E27469"/>
<path d="M174.889 58.6807C174.572 57.9855 175.061 57.2035 174.658 56.5167C175.457 56.9759 175.422 57.671 175.156 58.4202C175.139 58.484 175.106 58.5421 175.059 58.5881C175.012 58.634 174.953 58.6661 174.889 58.6807Z" fill="#E17067"/>
<path d="M174.889 58.6805L175.156 58.42L175.069 60.7605C174.138 60.1364 174.936 59.3751 174.889 58.6805Z" fill="#E77C6B"/>
<path d="M163.838 72.7175C164.574 72.935 165.225 73.3774 165.7 73.9837C164.896 73.8305 164.209 73.5148 163.838 72.7175Z" fill="#EA8271"/>
<path d="M174.206 63.4807C173.913 63.1271 173.469 62.8354 173.686 62.2926C173.703 62.2346 173.738 62.1835 173.786 62.1466C173.833 62.1097 173.891 62.0888 173.951 62.087C174.011 62.0853 174.07 62.1026 174.12 62.1367C174.169 62.1707 174.207 62.2197 174.227 62.2766C174.219 62.6787 174.211 63.078 174.206 63.4807Z" fill="#E67361"/>
<path d="M173.645 65.9593C174.053 66.1323 174.753 65.8977 174.694 66.7224C174.184 66.6892 173.79 66.5018 173.645 65.9593Z" fill="#D97073"/>
<path d="M174.375 55.7262C174.672 55.2614 173.719 54.495 174.741 54.2048C174.444 54.6695 175.246 55.3928 174.375 55.7262Z" fill="#E5796A"/>
<path d="M169.341 65.952C168.98 65.3879 169.285 65.1209 169.792 64.9485C169.75 65.2998 169.711 65.6545 169.673 66.0065C169.648 66.0271 169.62 66.0421 169.589 66.0506C169.558 66.0591 169.526 66.0608 169.494 66.0557C169.463 66.0505 169.433 66.0386 169.407 66.0207C169.38 66.0028 169.358 65.9794 169.341 65.952Z" fill="#EE8C76"/>
<path d="M171.897 65.3405C172.381 65.2483 173.015 64.7453 173.09 65.7765C172.785 65.3706 172.153 65.8388 171.897 65.3405Z" fill="#DF8C8D"/>
<path d="M169.341 65.952L169.672 66.0065L169.989 67.0382C169.76 66.9806 169.563 66.834 169.442 66.6304C169.32 66.4269 169.284 66.183 169.341 65.952Z" fill="#E8877B"/>
<path d="M175.749 63.1966C175.632 63.7575 175.155 63.9127 174.721 64.1119C174.776 63.8706 174.905 63.6525 175.089 63.4883C175.274 63.3241 175.504 63.2221 175.749 63.1966Z" fill="#E98575"/>
<path d="M154.277 82.6258C154.217 82.8444 154.154 83.0625 154.094 83.2811C154.003 82.7823 153.509 82.2404 154.256 81.8342C154.266 82.091 154.272 82.3556 154.277 82.6258Z" fill="#FDF190"/>
<path d="M69.1727 48.8844C69.4861 49.1926 69.6257 49.7075 70.2887 49.5092C70.9518 49.3108 71.404 49.8031 71.4775 50.4124C71.5725 51.2107 71.0725 51.2264 70.4867 50.9843C70.4032 50.9669 70.2332 51.0719 70.1413 51.164C69.6383 51.6678 69.0556 52.1082 68.4542 51.4532C67.747 50.6649 69.0646 50.6293 69.0872 50.0751C67.8523 49.5602 66.7767 49.9125 65.9704 51.0905C65.6558 51.5546 65.4507 52.1205 64.8429 52.3186C64.5933 52.4012 64.3367 52.6286 64.0978 52.2833C63.9217 52.0271 63.8071 51.7545 64.0627 51.5181C65.1411 50.5255 65.8667 48.9678 67.6777 49.0878C67.7749 49.0243 67.8827 48.9793 67.9959 48.9551C68.3943 49.0089 68.7676 48.6536 69.1727 48.8844Z" fill="#F8FBF7"/>
<path d="M69.1726 48.8847C68.803 49.1383 68.4442 49.4381 67.942 49.2134C68.164 48.5106 67.345 48.8578 67.2202 48.4952C66.7458 47.9837 66.1956 47.6964 65.4637 47.974C65.237 48.0597 64.9885 48.0665 64.7578 47.9935C64.5272 47.9205 64.3277 47.7718 64.191 47.5712C65.4167 46.2904 67.003 46.6942 68.3763 46.7815C69.4386 46.8419 69.5634 47.9156 69.1726 48.8847Z" fill="#F4F9F3"/>
<path d="M70.0358 52.9359C69.5016 53.2605 68.8843 53.419 68.2618 53.3914C68.0581 53.3928 67.6493 53.3193 67.7715 53.0814C68.1434 52.3425 68.9744 52.6064 69.5929 52.3988C69.837 52.3151 69.9784 52.5845 70.0358 52.9359Z" fill="#E7F3E3"/>
<path d="M71.5952 52.2017C72.2409 51.8915 72.7037 51.511 73.2991 51.9717C73.3695 52.0244 73.3966 52.2846 73.3477 52.3242C72.8056 52.7086 72.2639 52.7011 71.5952 52.2017Z" fill="#F2F8F0"/>
<path d="M67.2389 48.4873L68.0335 48.5915C68.2423 48.635 68.5546 48.6006 68.4875 48.9085C68.46 49.0403 68.1386 49.105 67.9496 49.2032L67.6823 49.0918L67.2389 48.4873Z" fill="#6EBF55"/>
<path d="M141.205 55.9754C141.887 56.2552 142.672 56.8255 142.772 55.4242C143.905 56.3041 144.67 56.1857 145.542 54.9862C145.709 54.7576 145.807 54.4005 146.022 54.3019C147.204 53.7611 147.905 53.2547 146.744 51.8949C146.261 51.3261 147.03 50.6084 147.626 50.4517C148.575 50.1876 149.448 49.6969 150.17 49.0214C150.57 48.6775 151.098 48.3895 151.549 48.902C152 49.4145 151.487 49.8255 151.186 50.2077C151.05 50.3366 150.903 50.4538 150.747 50.5581C149.14 52.0402 149.142 52.0992 150.691 53.6132C150.811 53.8634 151.449 53.771 151.148 54.2936C150.639 54.5621 150.654 54.9076 150.991 55.3115C151.189 55.5487 151.288 55.7976 150.983 56.0354C150.931 56.0826 150.871 56.1191 150.805 56.1427C150.739 56.1664 150.67 56.1767 150.6 56.1731C150.531 56.1695 150.463 56.152 150.4 56.1217C150.338 56.0915 150.281 56.049 150.235 55.9967C149.382 55.295 149.018 55.6757 148.85 56.621C148.639 57.803 147.761 58.2346 146.628 57.735C146.317 57.597 145.991 57.4033 145.698 57.5412C144.269 58.2382 143.094 56.8637 141.692 57.0925C141.259 57.1778 141.079 56.4964 141.205 55.9754Z" fill="#B01F23"/>
<path d="M151.162 54.2965L150.705 53.616C151.534 53.9176 152.394 53.6403 153.227 53.7436C153.757 53.8068 154.243 54.0714 154.586 54.4835C153.357 55.5587 152.291 54.3299 151.162 54.2965Z" fill="#B01F23"/>
<path d="M157.836 68.2153C158.072 68.3932 158.507 68.3551 158.481 68.8004C158.315 68.8243 158.149 68.8375 157.982 68.8397L157.836 68.2153Z" fill="#D55656"/>
<path d="M220.269 154.706C220.665 154.35 221.031 154.602 221.399 154.86L220.269 154.706Z" fill="#BCBCBC"/>
<path d="M137.835 69.3277C137.761 69.6811 137.692 70.1378 137.295 70.0492C136.755 69.9367 136.914 69.3553 136.906 68.9615C136.897 68.8776 136.909 68.7929 136.941 68.7147C136.973 68.6365 137.023 68.5673 137.087 68.5131C137.152 68.459 137.228 68.4215 137.31 68.4039C137.392 68.3864 137.477 68.3894 137.558 68.4126C138.076 68.5469 137.862 69.0027 137.835 69.3277Z" fill="#CA4B45"/>
<path d="M139.756 72.1397C140.552 71.4103 141.047 71.8529 141.521 72.215C141.562 72.2533 141.593 72.301 141.612 72.3541C141.63 72.4073 141.636 72.4642 141.628 72.52C141.62 72.5759 141.599 72.629 141.566 72.6749C141.533 72.7208 141.49 72.758 141.44 72.7834C140.613 73.1525 140.514 72.0959 139.756 72.1397Z" fill="#C53330"/>
<path d="M149.98 76.6382C149.169 76.9462 148.667 76.4553 148.088 76.0537C149.148 75.944 149.148 75.944 149.98 76.6382Z" fill="#C9433C"/>
<path d="M132.95 68.7194C132.793 68.9031 132.625 69.0699 132.356 69.0226C132.087 68.9753 132.093 68.763 132.156 68.586C132.168 68.5275 132.193 68.4724 132.228 68.4244C132.264 68.3765 132.309 68.3368 132.361 68.3082C132.413 68.2795 132.471 68.2626 132.53 68.2585C132.589 68.2544 132.649 68.2634 132.704 68.2846C132.923 68.3507 132.97 68.5274 132.95 68.7194Z" fill="#D76A63"/>
<path d="M154.696 77.7177C154.932 77.5641 155.198 77.4625 155.476 77.4195C155.754 77.3766 156.037 77.3932 156.308 77.4685C155.787 78.1148 155.298 78.1155 154.696 77.7177Z" fill="#F3714A"/>
<path d="M138.215 67.2798C138.193 67.483 138.136 67.6612 137.891 67.6511C137.646 67.6411 137.628 67.409 137.664 67.2351C137.689 67.1145 137.815 66.9418 137.914 66.9301C138.131 66.8906 138.248 67.0379 138.215 67.2798Z" fill="#BD2126"/>
<path d="M69.3348 26.0728C69.8142 25.6402 70.2855 26.1247 70.763 26.0779C70.2825 26.446 69.8085 26.1833 69.3348 26.0728Z" fill="#AFD8A4"/>
<path d="M148.486 52.8752C148.681 52.9159 148.815 53.0229 148.77 53.2535C148.763 53.2973 148.745 53.3388 148.718 53.3745C148.692 53.4103 148.658 53.4395 148.618 53.4597C148.579 53.4798 148.535 53.4905 148.491 53.4908C148.447 53.4911 148.403 53.481 148.364 53.4614C148.204 53.4047 148.006 53.3225 148.055 53.0869C148.105 52.8513 148.308 52.8791 148.486 52.8752Z" fill="#E59593"/>
</g>
<defs>
<clipPath id="clip0_0_414">
<rect x="29.5767" y="0.437614" width="271.394" height="141.519" rx="10" transform="rotate(11.7748 29.5767 0.437614)" fill="white"/>
</clipPath>
</defs>
</svg>
