<svg width="41" height="32" viewBox="0 0 41 32" fill="none" xmlns="http://www.w3.org/2000/svg">
<g filter="url(#filter0_d_0_619)">
<path d="M20.0091 29.986C15.1974 29.986 10.3856 29.9536 5.57389 29.9999C4.97308 30.003 4.37755 29.8965 3.82172 29.6866C3.26588 29.4767 2.76074 29.1675 2.33547 28.777C1.9102 28.3864 1.57323 27.9222 1.34402 27.4112C1.1148 26.9001 0.997889 26.3523 1.00003 25.7995C1.01515 20.908 1.00003 16.0166 1.00003 11.1242C1.00003 8.72951 2.96947 6.92559 5.57087 6.9191C6.50318 6.9191 7.43549 6.9191 8.3678 6.9191C9.1963 6.92374 9.81717 6.60283 10.2415 5.94712C10.8536 5.00049 11.4688 4.05695 12.087 3.1165C13.0042 1.72531 14.3245 0.994467 16.1115 1.00003C18.719 1.00745 21.3274 1.00003 23.9349 1.00003C25.6584 1.00003 26.9535 1.70583 27.8536 3.03488C28.4936 3.97997 29.1094 4.93711 29.7253 5.89889C30.1677 6.59449 30.8078 6.93208 31.6836 6.9191C32.5907 6.90797 33.4979 6.91446 34.405 6.9191C37.0356 6.92466 38.995 8.72023 38.997 11.1381C39.001 16.0172 39.001 20.8972 38.997 25.7781C38.997 27.9048 37.5123 29.5436 35.2405 29.9517C34.9918 29.987 34.74 29.9998 34.4886 29.9897L20.0091 29.986ZM10.7878 16.9802C10.7233 21.2651 14.4283 25.4387 19.9708 25.4619C25.3903 25.486 29.2284 21.3903 29.2183 16.9552C29.2062 12.4468 25.2472 8.49579 20.002 8.49579C14.7569 8.49579 10.7283 12.4421 10.7878 16.9802Z" fill="#F6EE22"/>
<path d="M20.0091 29.986C15.1974 29.986 10.3856 29.9536 5.57389 29.9999C4.97308 30.003 4.37755 29.8965 3.82172 29.6866C3.26588 29.4767 2.76074 29.1675 2.33547 28.777C1.9102 28.3864 1.57323 27.9222 1.34402 27.4112C1.1148 26.9001 0.997889 26.3523 1.00003 25.7995C1.01515 20.908 1.00003 16.0166 1.00003 11.1242C1.00003 8.72951 2.96947 6.92559 5.57087 6.9191C6.50318 6.9191 7.43549 6.9191 8.3678 6.9191C9.1963 6.92374 9.81717 6.60283 10.2415 5.94712C10.8536 5.00049 11.4688 4.05695 12.087 3.1165C13.0042 1.72531 14.3245 0.994467 16.1115 1.00003C18.719 1.00745 21.3274 1.00003 23.9349 1.00003C25.6584 1.00003 26.9535 1.70583 27.8536 3.03488C28.4936 3.97997 29.1094 4.93711 29.7253 5.89889C30.1677 6.59449 30.8078 6.93208 31.6836 6.9191C32.5907 6.90797 33.4979 6.91446 34.405 6.9191C37.0356 6.92466 38.995 8.72023 38.997 11.1381C39.001 16.0172 39.001 20.8972 38.997 25.7781C38.997 27.9048 37.5123 29.5436 35.2405 29.9517C34.9918 29.987 34.74 29.9998 34.4886 29.9897L20.0091 29.986ZM10.7878 16.9802C10.7233 21.2651 14.4283 25.4387 19.9708 25.4619C25.3903 25.486 29.2284 21.3903 29.2183 16.9552C29.2062 12.4468 25.2472 8.49579 20.002 8.49579C14.7569 8.49579 10.7283 12.4421 10.7878 16.9802Z" stroke="#231F20" stroke-width="0.83" stroke-miterlimit="10"/>
</g>
<defs>
<filter id="filter0_d_0_619" x="0.584991" y="0.584991" width="39.83" height="30.83" filterUnits="userSpaceOnUse" color-interpolation-filters="sRGB">
<feFlood flood-opacity="0" result="BackgroundImageFix"/>
<feColorMatrix in="SourceAlpha" type="matrix" values="0 0 0 0 0 0 0 0 0 0 0 0 0 0 0 0 0 0 127 0" result="hardAlpha"/>
<feOffset dx="1" dy="1"/>
<feComposite in2="hardAlpha" operator="out"/>
<feColorMatrix type="matrix" values="0 0 0 0 0 0 0 0 0 0 0 0 0 0 0 0 0 0 0.25 0"/>
<feBlend mode="normal" in2="BackgroundImageFix" result="effect1_dropShadow_0_619"/>
<feBlend mode="normal" in="SourceGraphic" in2="effect1_dropShadow_0_619" result="shape"/>
</filter>
</defs>
</svg>
